<svg width="218" height="77" viewBox="0 0 218 77" fill="none" xmlns="http://www.w3.org/2000/svg">
<path d="M1 38.5C1 17.7893 17.7893 1 38.5 1H179.5C200.211 1 217 17.7893 217 38.5V76H38.5C17.7893 76 1 59.2107 1 38.5Z" stroke="#F2F2F2" stroke-width="2"/>
<path d="M43.8747 48H38.6427V30.816H43.8267C45.5547 30.816 47.0667 31.176 48.3627 31.896C49.6587 32.616 50.6667 33.624 51.3867 34.92C52.1067 36.2 52.4667 37.696 52.4667 39.408C52.4667 41.12 52.1067 42.624 51.3867 43.92C50.6827 45.2 49.6827 46.2 48.3867 46.92C47.1067 47.64 45.6027 48 43.8747 48ZM40.3707 31.632V47.184L39.5787 46.416H43.8027C45.2107 46.416 46.4267 46.128 47.4507 45.552C48.4747 44.976 49.2667 44.168 49.8267 43.128C50.4027 42.072 50.6907 40.832 50.6907 39.408C50.6907 37.984 50.4027 36.744 49.8267 35.688C49.2667 34.632 48.4667 33.824 47.4267 33.264C46.4027 32.688 45.1787 32.4 43.7547 32.4H39.5787L40.3707 31.632ZM61.3 36.24V37.728H60.388C59.316 37.728 58.46 38.056 57.82 38.712C57.196 39.368 56.884 40.256 56.884 41.376V48H55.228V36.384H56.788L56.932 38.664H56.764C56.924 37.912 57.316 37.304 57.94 36.84C58.564 36.36 59.324 36.12 60.22 36.12C60.396 36.12 60.572 36.128 60.748 36.144C60.924 36.16 61.108 36.192 61.3 36.24ZM62.2401 42.192C62.2401 40.992 62.4961 39.936 63.0081 39.024C63.5201 38.112 64.2241 37.392 65.1201 36.864C66.0161 36.336 67.0241 36.072 68.1441 36.072C69.2801 36.072 70.2881 36.336 71.1681 36.864C72.0641 37.392 72.7681 38.112 73.2801 39.024C73.7921 39.936 74.0481 40.992 74.0481 42.192C74.0481 43.36 73.7921 44.408 73.2801 45.336C72.7681 46.248 72.0641 46.968 71.1681 47.496C70.2881 48.024 69.2801 48.288 68.1441 48.288C67.0241 48.288 66.0161 48.024 65.1201 47.496C64.2241 46.968 63.5201 46.248 63.0081 45.336C62.4961 44.408 62.2401 43.36 62.2401 42.192ZM63.9201 42.168C63.9201 43.08 64.0961 43.888 64.4481 44.592C64.8161 45.28 65.3121 45.824 65.9361 46.224C66.5761 46.608 67.3121 46.8 68.1441 46.8C68.9761 46.8 69.7041 46.608 70.3281 46.224C70.9681 45.824 71.4641 45.28 71.8161 44.592C72.1841 43.888 72.3681 43.08 72.3681 42.168C72.3681 41.272 72.1841 40.48 71.8161 39.792C71.4641 39.104 70.9681 38.56 70.3281 38.16C69.7041 37.76 68.9761 37.56 68.1441 37.56C67.3121 37.56 66.5761 37.76 65.9361 38.16C65.3121 38.56 64.8161 39.104 64.4481 39.792C64.0961 40.48 63.9201 41.272 63.9201 42.168ZM76.6968 53.064V36.384H78.1367L78.3048 38.736C78.7208 37.84 79.3128 37.176 80.0808 36.744C80.8648 36.296 81.7368 36.072 82.6968 36.072C83.8168 36.072 84.7768 36.336 85.5768 36.864C86.3768 37.392 86.9928 38.112 87.4248 39.024C87.8568 39.936 88.0728 40.976 88.0728 42.144C88.0728 43.312 87.8568 44.36 87.4248 45.288C87.0088 46.216 86.4008 46.952 85.6008 47.496C84.8168 48.024 83.8488 48.288 82.6968 48.288C81.7048 48.288 80.8328 48.08 80.0808 47.664C79.3288 47.232 78.7528 46.6 78.3528 45.768V53.064H76.6968ZM78.3768 42.192C78.3768 43.072 78.5368 43.864 78.8568 44.568C79.1768 45.256 79.6328 45.8 80.2248 46.2C80.8328 46.6 81.5608 46.8 82.4088 46.8C83.2568 46.8 83.9768 46.6 84.5688 46.2C85.1608 45.8 85.6088 45.256 85.9128 44.568C86.2328 43.864 86.3928 43.072 86.3928 42.192C86.3928 41.296 86.2328 40.504 85.9128 39.816C85.6088 39.112 85.1608 38.568 84.5688 38.184C83.9768 37.784 83.2568 37.584 82.4088 37.584C81.5608 37.584 80.8328 37.784 80.2248 38.184C79.6328 38.568 79.1768 39.112 78.8568 39.816C78.5368 40.504 78.3768 41.296 78.3768 42.192ZM105.529 36.384H107.185V48H105.745L105.529 46.032C105.209 46.704 104.673 47.248 103.921 47.664C103.185 48.08 102.361 48.288 101.449 48.288C100.089 48.288 99.0406 47.856 98.3046 46.992C97.5846 46.128 97.2246 44.992 97.2246 43.584V36.36H98.9046V43.056C98.9046 44.432 99.1846 45.4 99.7446 45.96C100.321 46.52 101.065 46.8 101.977 46.8C103.097 46.8 103.969 46.44 104.593 45.72C105.217 44.984 105.529 43.928 105.529 42.552V36.384ZM109.416 44.736H111C111 45.408 111.24 45.944 111.72 46.344C112.2 46.728 112.84 46.92 113.64 46.92C114.536 46.92 115.232 46.744 115.728 46.392C116.24 46.024 116.496 45.528 116.496 44.904C116.496 44.424 116.36 44.04 116.088 43.752C115.816 43.464 115.336 43.232 114.648 43.056L112.656 42.552C111.648 42.296 110.896 41.904 110.4 41.376C109.904 40.848 109.656 40.192 109.656 39.408C109.656 38.736 109.832 38.152 110.184 37.656C110.536 37.144 111.024 36.752 111.648 36.48C112.288 36.208 113.024 36.072 113.856 36.072C114.672 36.072 115.384 36.216 115.992 36.504C116.6 36.792 117.072 37.2 117.408 37.728C117.76 38.24 117.944 38.856 117.96 39.576H116.352C116.336 38.888 116.104 38.36 115.656 37.992C115.208 37.624 114.592 37.44 113.808 37.44C112.992 37.44 112.36 37.608 111.912 37.944C111.48 38.28 111.264 38.76 111.264 39.384C111.264 40.28 111.896 40.888 113.16 41.208L115.152 41.712C116.16 41.968 116.896 42.344 117.36 42.84C117.84 43.336 118.08 44 118.08 44.832C118.08 45.52 117.896 46.128 117.528 46.656C117.16 47.184 116.64 47.592 115.968 47.88C115.312 48.152 114.544 48.288 113.664 48.288C112.368 48.288 111.336 47.968 110.568 47.328C109.8 46.672 109.416 45.808 109.416 44.736ZM130.798 48.288C129.566 48.288 128.598 47.968 127.894 47.328C127.206 46.688 126.862 45.864 126.862 44.856C126.862 43.784 127.246 42.928 128.014 42.288C128.782 41.648 129.846 41.272 131.206 41.16L135.046 40.848V40.464C135.046 39.696 134.91 39.096 134.638 38.664C134.366 38.216 133.998 37.904 133.534 37.728C133.07 37.552 132.55 37.464 131.974 37.464C130.95 37.464 130.158 37.68 129.598 38.112C129.038 38.544 128.758 39.152 128.758 39.936H127.246C127.246 39.152 127.446 38.472 127.846 37.896C128.246 37.32 128.806 36.872 129.526 36.552C130.246 36.232 131.078 36.072 132.022 36.072C132.934 36.072 133.734 36.232 134.422 36.552C135.11 36.856 135.654 37.336 136.054 37.992C136.47 38.632 136.678 39.464 136.678 40.488V48H135.286L135.07 45.96C134.718 46.696 134.158 47.272 133.39 47.688C132.638 48.088 131.774 48.288 130.798 48.288ZM131.182 46.944C132.414 46.944 133.366 46.552 134.038 45.768C134.71 44.984 135.046 43.968 135.046 42.72V42.096L131.614 42.36C130.526 42.456 129.742 42.728 129.262 43.176C128.782 43.624 128.542 44.168 128.542 44.808C128.542 45.512 128.782 46.048 129.262 46.416C129.742 46.768 130.382 46.944 131.182 46.944ZM148.386 48H146.73V30.504H148.386V48ZM151.908 48V36.384H153.564V48H151.908ZM152.724 33.192C152.388 33.192 152.1 33.072 151.86 32.832C151.62 32.592 151.5 32.304 151.5 31.968C151.5 31.632 151.62 31.344 151.86 31.104C152.1 30.848 152.388 30.72 152.724 30.72C153.06 30.72 153.348 30.848 153.588 31.104C153.844 31.344 153.972 31.632 153.972 31.968C153.972 32.304 153.844 32.592 153.588 32.832C153.348 33.072 153.06 33.192 152.724 33.192ZM158.673 48H157.017V36.384H158.457L158.697 38.4C159.081 37.664 159.625 37.096 160.329 36.696C161.049 36.28 161.833 36.072 162.681 36.072C164.281 36.072 165.433 36.512 166.137 37.392C166.841 38.272 167.193 39.44 167.193 40.896V48H165.537V41.256C165.537 39.896 165.249 38.944 164.673 38.4C164.113 37.856 163.353 37.584 162.393 37.584C161.209 37.584 160.289 37.984 159.633 38.784C158.993 39.568 158.673 40.616 158.673 41.928V48ZM175.366 48.288C174.246 48.288 173.254 48.032 172.39 47.52C171.542 47.008 170.878 46.296 170.398 45.384C169.918 44.472 169.678 43.408 169.678 42.192C169.678 40.992 169.91 39.936 170.374 39.024C170.854 38.096 171.51 37.376 172.342 36.864C173.174 36.336 174.142 36.072 175.246 36.072C176.302 36.072 177.222 36.304 178.006 36.768C178.806 37.232 179.422 37.88 179.854 38.712C180.302 39.528 180.526 40.488 180.526 41.592V42.408H170.59L170.638 41.208H178.87C178.87 40.088 178.534 39.192 177.862 38.52C177.206 37.832 176.334 37.488 175.246 37.488C174.446 37.488 173.742 37.672 173.134 38.04C172.542 38.408 172.086 38.936 171.766 39.624C171.446 40.296 171.286 41.096 171.286 42.024C171.286 43.56 171.638 44.752 172.342 45.6C173.062 46.448 174.078 46.872 175.39 46.872C176.334 46.872 177.11 46.672 177.718 46.272C178.326 45.872 178.734 45.288 178.942 44.52H180.526C180.222 45.736 179.63 46.672 178.75 47.328C177.87 47.968 176.742 48.288 175.366 48.288Z" fill="#F2F2F2"/>
</svg>
