<svg width="93" height="20" viewBox="0 0 93 20" fill="none" xmlns="http://www.w3.org/2000/svg">
<path d="M1 1L10 1C14.9706 1 19 5.02944 19 10C19 14.9706 14.9706 19 10 19C5.02944 19 1 14.9706 1 10L1 1Z" stroke="#ffffff" stroke-width="2"/>
<path d="M49 6.91504L54.8085 6.91504C58.0165 6.91504 60.617 9.5156 60.617 12.7235C60.617 15.9315 58.0165 18.5321 54.8085 18.5321C51.6006 18.5321 49 15.9315 49 12.7235V6.91504Z" stroke="#ffffff" stroke-width="2"/>
<path d="M65 6.91504L70.8085 6.91504C74.0165 6.91504 76.617 9.5156 76.617 12.7235C76.617 15.9315 74.0165 18.5321 70.8085 18.5321C67.6006 18.5321 65 15.9315 65 12.7235V6.91504Z" stroke="#ffffff" stroke-width="2"/>
<path d="M92 18.532L86.1915 18.532C82.9835 18.532 80.383 15.9314 80.383 12.7235C80.383 9.51552 82.9835 6.91496 86.1915 6.91496C89.3994 6.91496 92 9.51552 92 12.7235L92 18.532Z" stroke="#ffffff" stroke-width="2"/>
<path d="M45.0234 18.532L39.2149 18.532C36.007 18.532 33.4064 15.9314 33.4064 12.7235C33.4064 9.51552 36.007 6.91496 39.2149 6.91496C42.4229 6.91496 45.0234 9.51552 45.0234 12.7235L45.0234 18.532Z" stroke="#ffffff" stroke-width="2"/>
<rect x="28" width="2" height="20" fill="#ffffff"/>
<rect x="48" width="2" height="11" fill="#ffffff"/>
<rect x="64" width="2" height="11" fill="#ffffff"/>
</svg>
