<svg width="366" height="99" viewBox="0 0 366 99" fill="none" xmlns="http://www.w3.org/2000/svg">
<path d="M93 96L61 96C43.3269 96 29 81.6731 29 64C29 46.3269 43.3269 32 61 32C78.6731 32 93 46.3269 93 64L93 96Z" stroke="#212121" stroke-width="6"/>
<path d="M363 96L331 96C313.327 96 299 81.6731 299 64C299 46.3269 313.327 32 331 32C348.673 32 363 46.3269 363 64L363 96Z" stroke="#212121" stroke-width="6"/>
<path fill-rule="evenodd" clip-rule="evenodd" d="M212 0H206V29V35V62V64C206 83.33 221.67 99 241 99C260.33 99 276 83.33 276 64C276 44.67 260.33 29 241 29H212V0ZM212 35V62V64C212 80.0163 224.984 93 241 93C257.016 93 270 80.0163 270 64C270 47.9837 257.016 35 241 35H212Z" fill="#212121"/>
<rect width="6" height="99" fill="#212121"/>
<path fill-rule="evenodd" clip-rule="evenodd" d="M122 0H116V29V35V62V64C116 83.33 131.67 99 151 99C170.33 99 186 83.33 186 64C186 44.67 170.33 29 151 29H122V0ZM122 35V62V64C122 80.0163 134.984 93 151 93C167.016 93 180 80.0163 180 64C180 47.9837 167.016 35 151 35H122Z" fill="#212121"/>
</svg>
