<svg width="168" height="28" viewBox="0 0 168 28" fill="none" xmlns="http://www.w3.org/2000/svg">
<path d="M1 1.5L10 1.5C14.9706 1.5 19 5.52944 19 10.5C19 15.4706 14.9706 19.5 10 19.5C5.02944 19.5 1 15.4706 1 10.5L1 1.5Z" stroke="white" stroke-width="2"/>
<path d="M49 7.41504L54.8085 7.41504C58.0165 7.41504 60.617 10.0156 60.617 13.2235C60.617 16.4315 58.0165 19.0321 54.8085 19.0321C51.6006 19.0321 49 16.4315 49 13.2235V7.41504Z" stroke="white" stroke-width="2"/>
<path d="M65 7.41504L70.8085 7.41504C74.0165 7.41504 76.617 10.0156 76.617 13.2235C76.617 16.4315 74.0165 19.0321 70.8085 19.0321C67.6006 19.0321 65 16.4315 65 13.2235V7.41504Z" stroke="white" stroke-width="2"/>
<path d="M92 19.032L86.1915 19.032C82.9835 19.032 80.383 16.4314 80.383 13.2235C80.383 10.0155 82.9835 7.41496 86.1915 7.41496C89.3994 7.41496 92 10.0155 92 13.2235L92 19.032Z" stroke="white" stroke-width="2"/>
<path d="M45.0234 19.032L39.2149 19.032C36.007 19.032 33.4064 16.4314 33.4064 13.2235C33.4064 10.0155 36.007 7.41496 39.2149 7.41496C42.4229 7.41496 45.0234 10.0155 45.0234 13.2235L45.0234 19.032Z" stroke="white" stroke-width="2"/>
<rect x="28" y="0.5" width="2" height="20" fill="white"/>
<rect x="48" y="0.5" width="2" height="11" fill="white"/>
<rect x="64" y="0.5" width="2" height="11" fill="white"/>
<path d="M103.879 18.324H104.935C104.935 18.772 105.095 19.1293 105.415 19.396C105.735 19.652 106.161 19.78 106.695 19.78C107.292 19.78 107.756 19.6627 108.087 19.428C108.428 19.1827 108.599 18.852 108.599 18.436C108.599 18.116 108.508 17.86 108.327 17.668C108.145 17.476 107.825 17.3213 107.367 17.204L106.039 16.868C105.367 16.6973 104.865 16.436 104.535 16.084C104.204 15.732 104.039 15.2947 104.039 14.772C104.039 14.324 104.156 13.9347 104.391 13.604C104.625 13.2627 104.951 13.0013 105.367 12.82C105.793 12.6387 106.284 12.548 106.839 12.548C107.383 12.548 107.857 12.644 108.263 12.836C108.668 13.028 108.983 13.3 109.207 13.652C109.441 13.9933 109.564 14.404 109.575 14.884H108.503C108.492 14.4253 108.337 14.0733 108.039 13.828C107.74 13.5827 107.329 13.46 106.807 13.46C106.263 13.46 105.841 13.572 105.543 13.796C105.255 14.02 105.111 14.34 105.111 14.756C105.111 15.3533 105.532 15.7587 106.375 15.972L107.703 16.308C108.375 16.4787 108.865 16.7293 109.175 17.06C109.495 17.3907 109.655 17.8333 109.655 18.388C109.655 18.8467 109.532 19.252 109.287 19.604C109.041 19.956 108.695 20.228 108.247 20.42C107.809 20.6013 107.297 20.692 106.711 20.692C105.847 20.692 105.159 20.4787 104.647 20.052C104.135 19.6147 103.879 19.0387 103.879 18.324ZM110.608 12.756H114.8V13.684H110.608V12.756ZM113.248 20.5H112.16V10.308H113.248V20.5ZM121.678 12.756H122.782V20.5H121.822L121.678 19.188C121.465 19.636 121.107 19.9987 120.606 20.276C120.115 20.5533 119.566 20.692 118.958 20.692C118.051 20.692 117.353 20.404 116.862 19.828C116.382 19.252 116.142 18.4947 116.142 17.556V12.74H117.262V17.204C117.262 18.1213 117.449 18.7667 117.822 19.14C118.206 19.5133 118.702 19.7 119.31 19.7C120.057 19.7 120.638 19.46 121.054 18.98C121.47 18.4893 121.678 17.7853 121.678 16.868V12.756ZM127.965 20.692C127.219 20.692 126.579 20.516 126.045 20.164C125.512 19.812 125.101 19.332 124.813 18.724C124.525 18.1053 124.381 17.412 124.381 16.644C124.381 15.8653 124.525 15.1667 124.813 14.548C125.101 13.9293 125.512 13.444 126.045 13.092C126.589 12.7293 127.245 12.548 128.013 12.548C128.653 12.548 129.219 12.6867 129.709 12.964C130.211 13.2413 130.595 13.6627 130.861 14.228V8.836H131.965V20.5H131.005L130.893 18.916C130.616 19.5133 130.221 19.9613 129.709 20.26C129.197 20.548 128.616 20.692 127.965 20.692ZM128.157 19.684C128.733 19.684 129.219 19.556 129.613 19.3C130.008 19.0333 130.312 18.6707 130.525 18.212C130.739 17.7427 130.845 17.2093 130.845 16.612C130.845 16.0147 130.739 15.4867 130.525 15.028C130.312 14.5693 130.008 14.2067 129.613 13.94C129.219 13.6733 128.733 13.54 128.157 13.54C127.603 13.54 127.123 13.6733 126.717 13.94C126.323 14.2067 126.019 14.5693 125.805 15.028C125.603 15.4867 125.501 16.0147 125.501 16.612C125.501 17.2093 125.603 17.7427 125.805 18.212C126.019 18.6707 126.323 19.0333 126.717 19.3C127.123 19.556 127.603 19.684 128.157 19.684ZM134.269 20.5V12.756H135.373V20.5H134.269ZM134.813 10.628C134.589 10.628 134.397 10.548 134.237 10.388C134.077 10.228 133.997 10.036 133.997 9.812C133.997 9.588 134.077 9.396 134.237 9.236C134.397 9.06533 134.589 8.98 134.813 8.98C135.037 8.98 135.229 9.06533 135.389 9.236C135.56 9.396 135.645 9.588 135.645 9.812C135.645 10.036 135.56 10.228 135.389 10.388C135.229 10.548 135.037 10.628 134.813 10.628ZM137.131 16.628C137.131 15.828 137.302 15.124 137.643 14.516C137.985 13.908 138.454 13.428 139.051 13.076C139.649 12.724 140.321 12.548 141.067 12.548C141.825 12.548 142.497 12.724 143.083 13.076C143.681 13.428 144.15 13.908 144.491 14.516C144.833 15.124 145.003 15.828 145.003 16.628C145.003 17.4067 144.833 18.1053 144.491 18.724C144.15 19.332 143.681 19.812 143.083 20.164C142.497 20.516 141.825 20.692 141.067 20.692C140.321 20.692 139.649 20.516 139.051 20.164C138.454 19.812 137.985 19.332 137.643 18.724C137.302 18.1053 137.131 17.4067 137.131 16.628ZM138.251 16.612C138.251 17.22 138.369 17.7587 138.603 18.228C138.849 18.6867 139.179 19.0493 139.595 19.316C140.022 19.572 140.513 19.7 141.067 19.7C141.622 19.7 142.107 19.572 142.523 19.316C142.95 19.0493 143.281 18.6867 143.515 18.228C143.761 17.7587 143.883 17.22 143.883 16.612C143.883 16.0147 143.761 15.4867 143.515 15.028C143.281 14.5693 142.95 14.2067 142.523 13.94C142.107 13.6733 141.622 13.54 141.067 13.54C140.513 13.54 140.022 13.6733 139.595 13.94C139.179 14.2067 138.849 14.5693 138.603 15.028C138.369 15.4867 138.251 16.0147 138.251 16.612Z" fill="white"/>
</svg>
