<svg width="124" height="55" viewBox="0 0 124 55" fill="none" xmlns="http://www.w3.org/2000/svg">
<path d="M14.2795 54.864C14.1152 54.7817 13.921 54.6349 13.8481 54.5379C13.7751 54.4408 13.3394 53.5917 12.8797 52.6509C11.7701 50.3802 8.00276 42.9169 6.72247 40.4532C4.81751 36.7874 3.24767 33.8371 0.470655 28.7041C0.0609988 27.9469 0.000318406 27.7986 3.08419e-07 27.5534C-0.000441493 27.025 0.473835 26.6193 0.994728 26.703C1.25481 26.7448 4.8931 29.0148 9.97929 32.3087C10.626 32.7275 11.2852 33.1129 11.4441 33.1652C11.8688 33.3049 12.5017 33.257 12.9015 33.0549C13.3797 32.8131 13.6906 32.4805 14.7907 31.0346C19.29 25.1209 25.5929 17.363 31.1963 10.8421C35.3334 6.0277 40.5153 0.230534 40.8223 0.0732605C41.1199 -0.079178 41.4941 0.0138066 41.6633 0.282269C41.8435 0.568034 41.7744 0.757634 40.8878 2.41192C33.4709 16.2502 24.0651 35.8941 16.7575 52.8079C16.407 53.6191 16.0659 54.3626 15.9995 54.4602C15.9331 54.5578 15.7693 54.7139 15.6355 54.8071C15.4297 54.9503 15.3293 54.9793 14.9852 54.9951C14.6345 55.0111 14.5371 54.993 14.2795 54.864Z" fill="#BABABA"/>
<path d="M70.2151 42.9148C70.1473 42.8337 70.148 42.7723 70.2182 42.6416C70.2931 42.5016 73.7237 37.4867 74.7048 36.0831L74.9954 35.6673L72.7712 32.4402C71.3484 30.3758 70.5461 29.1475 70.5443 29.031L70.5412 28.8488L73.9923 28.8098L75.4172 30.8871C76.2009 32.0296 76.8635 32.94 76.8896 32.9101C76.9156 32.8803 77.5591 31.9462 78.3194 30.8342L79.7017 28.8124H81.4055C83.0424 28.8124 83.1112 28.8181 83.1557 28.9575C83.1811 29.0372 83.177 29.1438 83.1464 29.1942C83.1158 29.2447 82.1038 30.7215 80.8974 32.476L78.704 35.6661L79.0679 36.1917C80.5409 38.3199 83.3006 42.344 83.4132 42.528C83.5142 42.6929 83.5318 42.7887 83.4792 42.8863C83.4129 43.0094 83.2799 43.0195 81.7281 43.0195H80.0488L78.4853 40.7427C77.6255 39.4905 76.8889 38.4676 76.8486 38.4697C76.8083 38.4715 76.0717 39.4964 75.2118 40.7465L73.6484 43.0195H71.9755C70.611 43.0195 70.2864 43.0002 70.2151 42.9148ZM120.101 40.4949L120.597 40.4484V38.4961C120.597 37.0161 120.574 36.5302 120.505 36.4877C120.349 36.3921 117.789 36.3672 117.047 36.4541C115.789 36.6014 115.098 36.9941 114.892 37.6779C114.739 38.1842 114.779 38.9956 114.977 39.413C115.4 40.3041 116.049 40.5142 118.433 40.5324C119.078 40.5373 119.829 40.5204 120.101 40.4949ZM116.013 43.0091C115.281 42.9292 114.232 42.6382 113.743 42.3799C113.539 42.2719 113.155 41.97 112.89 41.709C112.098 40.9298 111.803 40.1319 111.745 38.6116C111.701 37.4752 111.817 36.8191 112.194 36.0616C112.531 35.3862 112.798 35.0803 113.392 34.6904C114.512 33.955 115.495 33.7596 118.306 33.7123C120.162 33.6811 120.387 33.6644 120.447 33.5535C120.529 33.401 120.426 32.9087 120.234 32.5398C119.565 31.2491 117.354 30.9263 114.742 31.7379C114.191 31.909 113.95 31.9536 113.861 31.901C113.728 31.8222 113.449 31.2856 112.96 30.1704C112.583 29.31 112.546 29.3691 113.7 28.9988C115.766 28.3364 117.995 28.2034 119.68 28.6422C119.922 28.7052 120.429 28.9032 120.808 29.0822C121.379 29.3526 121.597 29.5083 122.095 30.0025C122.78 30.6819 123.126 31.2703 123.408 32.2394C123.718 33.301 123.75 33.8992 123.75 38.6298V43.0923L120.175 43.0828C118.208 43.0776 116.335 43.0444 116.013 43.0091ZM98.1688 43.0048C98.1016 42.938 98.0808 41.2535 98.0808 35.8674C98.0808 28.8359 98.0811 28.8172 98.2311 28.7375C98.3293 28.6853 98.8512 28.6655 99.7374 28.6803C100.845 28.6988 101.106 28.723 101.163 28.8123C101.201 28.8724 101.233 29.1129 101.233 29.3467L101.235 29.7718L101.581 29.4693C102.378 28.7716 103.49 28.4234 104.902 28.4288C107.634 28.4394 109.511 29.8632 110.264 32.4974C110.427 33.0652 110.43 33.1529 110.456 37.9802C110.477 41.6635 110.462 42.9117 110.397 42.9891C110.328 43.0719 110.012 43.0922 108.791 43.0922C107.412 43.0922 107.26 43.0798 107.15 42.959C107.04 42.8381 107.029 42.414 107.029 38.3726C107.029 35.3781 107.002 33.793 106.947 33.5333C106.744 32.5729 106.132 31.8318 105.359 31.6085C104.806 31.4489 103.705 31.4557 103.173 31.622C102.399 31.864 101.811 32.5823 101.61 33.5333C101.555 33.793 101.528 35.3814 101.528 38.3852C101.528 42.6191 101.521 42.8573 101.394 42.9716C101.278 43.0755 101.053 43.0922 99.7584 43.0922C98.6885 43.0922 98.2315 43.0671 98.1688 43.0048ZM41.9176 43.0061C41.8482 42.9371 41.8282 40.7327 41.8282 33.1378C41.8282 24.3445 41.8398 23.3468 41.9435 23.2438C42.045 23.143 42.4742 23.1294 45.5555 23.1295C50.9253 23.1298 51.946 23.2568 53.6728 24.1397C54.1877 24.403 54.4705 24.6134 54.9589 25.0965C55.9813 26.1077 56.4898 27.2998 56.6588 29.0815C56.9412 32.0585 55.6784 34.3604 53.0494 35.6607C52.7065 35.8303 52.4143 35.9796 52.4001 35.9924C52.3859 36.0053 53.4502 37.5067 54.7654 39.329C57.2179 42.7274 57.3609 42.9668 56.9915 43.0566C56.9007 43.0786 56.0016 43.0875 54.9934 43.0762L53.1604 43.0557L46.3602 33.5115L48.3663 33.4676C50.4934 33.4211 50.814 33.3757 51.6321 33.0046C52.4294 32.6429 53.0029 31.8854 53.2028 30.9298C53.3361 30.2925 53.2516 28.8743 53.0485 28.3386C52.6033 27.1651 51.7654 26.6085 50.1524 26.4148C49.7894 26.3712 48.647 26.3354 47.6137 26.3353C45.8226 26.3351 45.726 26.3421 45.5414 26.4864C45.4348 26.5697 45.3066 26.709 45.2564 26.7961C45.1858 26.9186 45.1569 28.7749 45.1285 35.005L45.0919 43.0557L43.5495 43.0754C42.4115 43.0898 41.9836 43.0714 41.9176 43.0061ZM90.7808 40.2847C92.0238 39.9631 92.9339 39.0228 93.3876 37.5914C93.6155 36.8724 93.669 35.5402 93.5033 34.7088C93.0985 32.6775 91.7052 31.435 89.832 31.435C88.3082 31.435 87.1503 32.1492 86.5014 33.4892C86.0923 34.334 85.9513 35.0922 85.9967 36.2024C86.0534 37.5868 86.4088 38.4843 87.2429 39.35C87.6854 39.8092 88.3233 40.1845 88.8827 40.3149C89.3406 40.4216 90.3116 40.4061 90.7808 40.2847ZM88.3264 43.2472C85.2457 42.5774 83.0686 40.0042 82.7504 36.6568C82.4031 33.0042 84.4464 29.738 87.7198 28.7131C90.6207 27.8048 93.8272 28.8947 95.5135 31.3622C96.5398 32.8639 97.0159 34.7697 96.836 36.6557C96.5258 39.9085 94.5967 42.3157 91.6167 43.1688C90.8299 43.394 89.1821 43.4333 88.3264 43.2472ZM67.868 34.527C68.0963 34.2537 67.506 32.8511 66.9092 32.2487C66.2717 31.6054 65.4753 31.2917 64.4759 31.2902C63.3477 31.2889 62.4737 31.6166 61.7882 32.2992C61.1535 32.9311 60.5701 34.1607 60.7482 34.4912C60.8276 34.6388 60.8744 34.6407 64.3008 34.6407C67.3583 34.6407 67.7843 34.6272 67.868 34.527ZM63.1301 43.2816C61.4936 42.9719 60.2928 42.3629 59.2408 41.309C57.4373 39.5022 56.7308 36.4822 57.4612 33.7027C58.13 31.1576 60.0928 29.1818 62.5471 28.583C63.5241 28.3446 64.9897 28.3588 65.9738 28.6163C68.9861 29.4043 70.8844 32.2156 70.9026 35.9157L70.9079 37.0086L65.753 37.045C60.1687 37.0844 60.3999 37.0659 60.4949 37.4669C60.7523 38.5531 61.5279 39.5714 62.4562 40.0418C63.2471 40.4427 64.6459 40.5807 65.69 40.3609C66.3471 40.2226 67.1277 39.8621 67.7032 39.4312C67.9574 39.2408 68.2241 39.085 68.2959 39.085C68.4823 39.085 69.9912 40.8659 69.9912 41.0859C69.9912 41.441 68.5644 42.4885 67.5532 42.8759C67.2389 42.9963 66.7595 43.1454 66.4879 43.2072C65.8 43.3636 63.798 43.408 63.1301 43.2816Z" fill="#BABABA"/>
</svg>
