<svg width="130" height="23" viewBox="0 0 130 23" fill="none" xmlns="http://www.w3.org/2000/svg">
<path fill-rule="evenodd" clip-rule="evenodd" d="M50.6242 6.81166H53.6622V10.1148H59.0894V6.81166H62.0895V16.082H59.0894V12.1787H53.6233V16.0449H50.6242V6.81166ZM62.4307 6.81166H65.391L68.504 10.3775L71.5791 6.81166H74.502L69.9844 12.479V16.082H66.9857V12.2163L62.4307 6.81166ZM74.8815 6.81166H77.8807V13.9804H82.7015C83.4606 13.9804 83.9541 13.2311 83.9541 12.4419V6.81166H86.9524V14.2061C86.9524 15.3692 85.6243 16.0449 84.8647 16.0449H74.8815V6.81166ZM87.5977 6.81166H97.5822C98.7589 6.81166 99.7078 7.52395 99.7078 8.97059V16.0634L96.7091 16.082V10.4521C96.7091 9.66522 96.443 9.19581 95.4181 9.19581H90.901V16.1027H87.5977V6.81166ZM100.619 6.81166H109.349C111.096 6.81166 112.444 8.20002 112.444 9.26955V13.53C112.425 14.2803 111.362 16.0815 110.033 16.0815H100.62L100.619 6.81166ZM103.675 14.0184H108.282C108.946 14.0184 109.459 13.5305 109.459 12.929V10.2269C109.459 9.56983 108.913 9.17726 108.212 9.17726H103.675V14.0184ZM116.146 6.77236H125.503V16.082H122.162V13.681H116.41V16.082H113.032V10.0384C112.956 8.01234 114.779 6.77236 116.146 6.77236ZM116.372 10.0781V11.5777H122.143V9.21214H117.283C116.714 9.21258 116.372 9.55129 116.372 10.0781ZM126.11 6.79312H129.108V16.3637H126.11V6.79312ZM22.6411 0.5C10.1969 0.5 0.108398 5.42549 0.108398 11.4996C0.108398 17.5741 10.1969 22.5 22.6411 22.5C35.0844 22.5 45.1734 17.5745 45.1734 11.4996C45.1729 5.42593 35.084 0.5 22.6411 0.5ZM20.5034 2.94817C23.0752 2.0491 30.716 2.94817 33.684 4.35773C34.6338 5.25857 29.4487 8.15275 23.2748 9.40731C14.4478 11.1675 18.6429 4.43545 20.5034 2.94817ZM5.34446 15.9817C3.4041 14.6136 -0.395338 10.6985 5.89865 6.62838C9.22339 4.711 11.0834 4.27913 13.3787 3.81016C14.4876 3.57435 15.2789 3.84902 14.2893 4.67126C12.1918 6.82401 7.83767 13.946 7.44246 15.5127C7.12494 16.5703 6.49215 16.8428 5.34446 15.9817ZM23.4713 20.523C19.7513 20.9134 11.4795 19.7008 11.3205 18.6454C11.4795 16.0996 24.4613 11.8727 26.796 14.2211C27.7865 16.0603 25.8868 20.4051 23.4713 20.523ZM42.3917 13.1237C41.4409 15.2769 38.2354 17.7048 31.5074 19.3488C30.4771 19.582 30.1212 18.9567 30.7937 18.3694C31.903 17.7043 37.2463 8.85929 37.9188 7.09691C38.3149 6.19606 39.0665 6.54978 39.5421 6.90128C41.6798 8.27065 43.3022 10.502 42.3917 13.1237Z" fill="#BABABA"/>
</svg>
