<svg width="86" height="41" viewBox="0 0 86 41" fill="none" xmlns="http://www.w3.org/2000/svg">
<path d="M30.3301 11.413C30.3804 11.6514 30.1131 11.5313 30.0507 11.641C30.009 11.5818 30.2103 11.4339 30.3301 11.413Z" fill="#BABABA"/>
<path d="M29.4953 12.0014C29.5508 11.9335 29.5907 11.8918 29.6376 11.8692C29.6445 11.9022 29.7053 11.803 29.6879 11.7682C29.7261 11.7473 29.7209 11.7212 29.7504 11.7003C29.7712 11.7195 29.707 11.7282 29.7452 11.7491C29.8112 11.7021 29.8181 11.5994 29.8962 11.5367C29.9188 11.5193 29.9569 11.528 29.9882 11.5054C30.009 11.4915 30.0177 11.4549 30.0368 11.4375C30.1201 11.361 30.219 11.3035 30.2659 11.3227C30.2537 11.3784 30.1808 11.401 30.1565 11.441C30.1913 11.4567 30.2051 11.3958 30.2121 11.4532C30.2902 11.4114 30.337 11.3906 30.3666 11.354C30.3961 11.354 30.4256 11.354 30.4516 11.3871C30.5175 11.3366 30.5418 11.3401 30.6234 11.2896C30.6373 11.3627 30.7154 11.267 30.7553 11.3436C30.7796 11.3366 30.8022 11.3488 30.83 11.3262C30.8751 11.3818 30.9306 11.3314 30.974 11.4132C30.941 11.4462 30.915 11.4132 30.8803 11.4602C30.8733 11.4515 30.8664 11.4428 30.8595 11.4341C30.7935 11.4636 30.7588 11.535 30.6894 11.5159C30.7067 11.6116 30.5957 11.622 30.5453 11.6638C30.5245 11.6812 30.5245 11.7038 30.5071 11.7247C30.462 11.7804 30.3891 11.8152 30.3475 11.8726C30.3075 11.9248 30.2694 12.0066 30.2381 12.0658" fill="#BABABA"/>
<path d="M42.3424 26.2059C42.2366 26.0997 42.0682 26.0962 41.9606 26.1989C41.2663 26.8481 40.6398 27.2519 39.6678 27.2519C38.1995 27.2519 37.0922 26.044 37.0922 24.4203C37.0922 22.7965 38.1995 21.6391 39.6678 21.6391C40.4766 21.6391 41.1449 21.9385 41.8998 22.6416C41.9537 22.6938 42.03 22.7182 42.1012 22.7147C42.1758 22.7095 42.2452 22.6764 42.2938 22.6207L43.2675 21.4947C43.363 21.3833 43.356 21.2162 43.2502 21.117C42.5143 20.4122 41.5163 19.6916 39.68 19.6916C36.9846 19.6916 34.9522 21.7349 34.9522 24.469C34.9522 27.2031 37.0019 29.1976 39.6175 29.1976C41.1258 29.1976 42.2331 28.7138 43.3196 27.5791C43.422 27.4729 43.4202 27.3006 43.3161 27.1962L42.3407 26.2059H42.3424Z" fill="#BABABA"/>
<path d="M48.5559 27.2501C47.0373 27.2501 45.8935 26.044 45.8935 24.4185C45.8935 22.793 47.0268 21.6374 48.5299 21.6374C50.0329 21.6374 51.1923 22.8435 51.1923 24.4673C51.1923 26.091 50.059 27.2484 48.5559 27.2484M48.5559 19.6916C45.8622 19.6916 43.7535 21.7801 43.7535 24.469C43.7535 27.1579 45.8067 29.1976 48.5299 29.1976C51.2531 29.1976 53.3323 27.1109 53.3323 24.4203C53.3323 21.7296 51.2791 19.6916 48.5559 19.6916Z" fill="#BABABA"/>
<path d="M58.2302 23.4859C56.4824 23.0664 56.3939 22.7967 56.3939 22.3685C56.3939 21.9404 56.8486 21.6167 57.5255 21.6167C58.2406 21.6167 58.9539 21.8899 59.7054 22.4521C59.7644 22.4956 59.8391 22.5147 59.912 22.5043C59.9849 22.4921 60.0508 22.4521 60.0925 22.3912L60.9065 21.2408C60.9915 21.1224 60.969 20.9588 60.8544 20.8683C59.8946 20.0939 58.8133 19.7197 57.5481 19.7197C55.6805 19.7197 54.3267 20.8927 54.3267 22.5304C54.3267 24.2899 55.4584 24.9095 57.4144 25.3829C59.0268 25.7571 59.15 26.0564 59.15 26.4637C59.15 27.0624 58.5009 27.2764 57.8952 27.2764C56.9632 27.2764 56.2012 26.9597 55.3473 26.2183C55.2918 26.1713 55.2223 26.1504 55.146 26.1521C55.0731 26.1591 55.0054 26.1922 54.9568 26.2496L54.0438 27.3391C53.9501 27.4522 53.9623 27.621 54.0716 27.7202C55.1355 28.6722 56.4442 29.1752 57.857 29.1752C59.8981 29.1752 61.2154 28.0526 61.2154 26.2896C61.2154 24.5266 59.7818 23.8635 58.2284 23.4859" fill="#BABABA"/>
<path d="M69.3572 21.5249V20.1152C69.3572 19.9638 69.234 19.8403 69.083 19.8403H62.0763C61.9253 19.8403 61.802 19.9638 61.802 20.1152V21.5249C61.802 21.6764 61.9253 21.7999 62.0763 21.7999H64.5408V28.7754C64.5408 28.9268 64.6641 29.0504 64.8151 29.0504H66.3459C66.4969 29.0504 66.6201 28.9268 66.6201 28.7754V21.7999H69.0847C69.2357 21.7999 69.3589 21.6764 69.3589 21.5249" fill="#BABABA"/>
<path d="M74.3316 25.061H72.1915L73.2572 22.567L74.3316 25.061ZM74.2344 19.9425C74.191 19.8416 74.092 19.7772 73.9827 19.7772H72.5769C72.4675 19.7772 72.3686 19.8416 72.3252 19.9425L68.5259 28.6636C68.4877 28.7488 68.4964 28.8463 68.5485 28.9246C68.5988 29.0029 68.6856 29.0482 68.7776 29.0482H70.3327C70.4438 29.0482 70.5427 28.982 70.5844 28.8811L71.4018 26.958H75.1213L75.9266 28.8794C75.97 28.982 76.0689 29.0482 76.18 29.0482H77.7837C77.8757 29.0482 77.9625 29.0012 78.0128 28.9246C78.0631 28.8463 78.0718 28.7488 78.0354 28.6636L74.2361 19.9425H74.2344Z" fill="#BABABA"/>
<path d="M39.7928 33.0794C40.4835 33.0794 41.3079 33.2812 41.3079 34.2646C41.3079 34.9885 40.7317 35.4376 39.8049 35.4376H37.8575V33.0794H39.7928ZM41.5023 36.9413C42.7138 36.4661 43.3994 35.4741 43.3994 34.1532C43.3994 33.3404 43.1251 32.6286 42.601 32.0891C41.971 31.4712 41.0407 31.1458 39.916 31.1458H36.0681C35.9171 31.1458 35.7939 31.2676 35.7939 31.4208V40.0792C35.7939 40.2306 35.9171 40.3541 36.0681 40.3541H37.5851C37.7361 40.3541 37.8593 40.2306 37.8593 40.0792V37.3363H39.3432L41.3843 40.2375C41.4347 40.3106 41.5197 40.3541 41.6082 40.3541H43.3976C43.5 40.3541 43.5955 40.2967 43.6424 40.2045C43.6892 40.114 43.6805 40.0026 43.6215 39.919L41.5023 36.9413Z" fill="#BABABA"/>
<path d="M46.7161 31.143H45.1992C45.0482 31.143 44.925 31.2648 44.925 31.418V40.0764C44.925 40.2278 45.0482 40.3513 45.1992 40.3513H46.7161C46.8671 40.3513 46.9904 40.2278 46.9904 40.0764V31.418C46.9904 31.2648 46.8671 31.143 46.7161 31.143Z" fill="#BABABA"/>
<path d="M55.8194 37.5083C55.7136 37.4021 55.5452 37.3986 55.4359 37.5013C54.7434 38.1487 54.1168 38.5525 53.1431 38.5525C51.6748 38.5525 50.5675 37.3464 50.5675 35.7227C50.5675 34.0989 51.6748 32.9433 53.1431 32.9433C53.9519 32.9433 54.6201 33.2426 55.3751 33.9457C55.4289 33.9962 55.5053 34.0223 55.5747 34.0188C55.6494 34.0153 55.7188 33.9805 55.7674 33.9248L56.7411 32.7988C56.8383 32.6874 56.8296 32.5221 56.7237 32.4194C55.9895 31.7163 54.9898 30.9958 53.1553 30.9958C50.4599 30.9958 48.4274 33.039 48.4274 35.7731C48.4274 38.5073 50.4772 40.5 53.0928 40.5C54.601 40.5 55.7084 40.0162 56.7931 38.8814C56.8973 38.7735 56.8955 38.6047 56.7914 38.4986L55.8177 37.5083H55.8194Z" fill="#BABABA"/>
<path d="M63.0102 36.3633H60.8701L61.9341 33.8694L63.0084 36.3633H63.0102ZM66.714 39.9677L62.913 31.2466C62.8696 31.1474 62.7706 31.0813 62.663 31.0813H61.2572C61.1478 31.0813 61.0489 31.1474 61.0055 31.2466L57.2063 39.9677C57.1681 40.053 57.1785 40.1504 57.2288 40.2287C57.2792 40.3053 57.3659 40.3523 57.4597 40.3523H59.013C59.1224 40.3523 59.223 40.2862 59.2664 40.1852L60.0839 38.2639H63.8033L64.6087 40.1852C64.6521 40.2879 64.751 40.354 64.8621 40.354H66.4658C66.5578 40.354 66.6445 40.3071 66.6949 40.2305C66.7452 40.1522 66.7539 40.0547 66.7174 39.9694" fill="#BABABA"/>
<path d="M58.409 7.79725C58.3968 7.63192 58.1399 7.6354 58.1538 7.41437C58.0497 7.39349 58.0289 7.27688 57.9542 7.22467C57.9004 7.18986 57.7893 7.22467 57.7963 7.13069C57.6522 7.11676 57.6175 7.08892 57.4925 7.08022C57.2201 7.06107 56.7879 7.11503 56.6438 7.34998C56.6508 7.42829 56.6143 7.45092 56.6595 7.48573C56.6039 7.50835 56.5866 7.57274 56.5727 7.64062C56.6004 7.72242 56.6542 7.7346 56.6022 7.85295C56.7428 7.9243 56.6595 8.19406 56.9024 8.21495C56.899 8.26716 56.8677 8.25671 56.8972 8.29326C56.958 8.32285 57.0031 8.30022 57.0743 8.28804C57.2739 8.56476 57.7494 8.22713 58.0809 8.34373C58.1729 8.29326 58.2042 8.18362 58.31 8.14707C58.2996 7.96781 58.4159 7.9243 58.4072 7.79725" fill="#BABABA"/>
<path d="M52.3552 3.70789C52.3621 3.67308 52.3725 3.63653 52.3829 3.60172C52.3586 3.59998 52.3239 3.61042 52.3257 3.5878C52.3309 3.53733 52.4072 3.56517 52.4038 3.506C52.4003 3.47641 52.343 3.49556 52.3795 3.43291C52.4281 3.4242 52.4177 3.34763 52.4767 3.34937C52.5114 3.26583 52.4506 3.2171 52.5496 3.19273C52.5409 2.77852 52.9696 2.81681 53.2074 2.93516C53.2629 2.85858 53.2039 2.79419 53.3549 2.81159C53.3757 2.72109 53.3167 2.76808 53.2889 2.74023C53.3427 2.75068 53.3375 2.69672 53.3636 2.67758C53.2872 2.6654 53.1935 2.58186 53.2143 2.54009C53.3809 2.58534 53.6569 2.39564 53.6065 2.39564C53.5961 2.34691 53.676 2.30166 53.5701 2.28599C53.5614 2.35387 53.3688 2.29296 53.3236 2.2303C53.4226 2.20942 53.4365 2.25989 53.4937 2.27381C53.4017 2.06845 52.9956 2.1224 52.9435 1.88397C52.8689 1.90485 52.8724 1.86308 52.8047 1.87701C52.8203 1.79521 52.7526 1.78477 52.7387 1.73081C52.4506 1.66642 52.2215 1.79695 52.0428 1.97273C51.9907 2.1955 51.8137 2.41478 51.7651 2.67062C51.7078 2.72631 51.6505 2.83073 51.6731 2.90383C51.5117 3.02044 51.5186 3.25017 51.4822 3.4068C51.4613 3.44683 51.4266 3.47293 51.4006 3.506L51.4075 3.69222C51.3468 3.81753 51.3034 4.05248 51.2409 4.21434C51.2166 4.25959 51.0986 4.59548 51.1454 4.59722C51.1333 4.75211 51.0673 4.9714 51.0274 5.20983C51.0587 5.21157 50.9528 5.77894 50.9268 5.85899C50.8834 5.99649 50.8296 6.34282 50.8122 6.40548C50.7758 6.47161 50.6352 7.14862 50.6577 7.13469C50.6577 7.18168 50.6473 7.29133 50.6282 7.32614C50.5675 7.42708 50.6126 7.43926 50.6039 7.49843C50.5987 7.5228 50.5883 7.67769 50.5866 7.74557C50.5796 7.89872 50.4963 8.06928 50.5137 8.24506C50.4876 8.24506 50.505 8.26246 50.4842 8.32163C50.1145 8.40865 49.816 8.30771 49.4845 8.30597C49.3404 8.30423 49.2085 8.31293 49.1078 8.27813C49.0679 8.27464 49.0124 8.2555 48.7937 8.25028C48.6965 8.24854 48.4743 8.27987 48.332 8.2642C48.1897 8.24854 48.089 8.17196 47.945 8.16326C47.8894 8.15978 47.8235 8.15804 47.7662 8.15804C47.5111 8.15804 47.3861 8.09713 47.1969 8.22069C47.0962 8.44868 47.0494 8.65405 47.1952 8.80894C47.1622 8.82634 47.1136 8.83156 47.1223 8.889C47.1605 8.95165 47.3358 8.96383 47.2177 9.07174C47.3323 9.04737 47.2611 9.13091 47.2872 9.1605C47.3948 9.1605 47.4191 9.25796 47.5302 9.29451C47.6916 9.34672 48.0092 9.32757 48.2435 9.35194C48.5715 9.39023 48.7052 9.42503 48.8319 9.41807C49.2797 9.38849 49.7587 9.52946 50.2134 9.42504C50.1856 9.48943 50.2325 9.48421 50.2863 9.4755C50.2585 9.57297 50.3349 9.56252 50.3887 9.61996C50.3332 9.6304 50.2898 9.65128 50.2585 9.68783C50.2655 9.82706 50.2377 9.95411 50.2082 10.0899C50.229 10.1368 50.2863 10.1264 50.3037 10.1403C50.2967 10.1682 50.2516 10.1612 50.2204 10.1647C50.1804 10.3805 50.2082 10.6033 50.2013 10.8313C50.2013 10.8887 50.1561 10.9635 50.1596 11.0227C50.1648 11.1219 50.1718 11.2281 50.1631 11.3464C50.1579 11.4056 50.1752 11.5048 50.1596 11.5553C50.1561 11.5657 50.1162 11.5727 50.1145 11.597C50.1093 11.6893 50.1579 11.8372 50.1648 11.879C50.1787 11.9677 50.1318 12.0843 50.1318 12.1853C50.1353 12.3019 50.1804 12.4133 50.1804 12.5229C50.1804 12.636 50.1336 12.73 50.1752 12.7892C50.1822 13.0537 50.1926 13.32 50.203 13.5845C50.2169 13.5236 50.387 14.5713 50.479 14.8916C50.446 15.0343 50.5137 15.0708 50.5397 15.1526C50.6074 15.3702 50.6195 15.6573 50.6959 15.8436C50.7115 15.8888 50.7532 15.9097 50.7688 15.9497C50.8018 16.0472 50.7948 16.1551 50.8313 16.2491C50.8886 16.4022 51.0274 16.5467 51.0864 16.705C51.1229 16.7973 51.1541 16.8321 51.1958 16.9052C51.2392 16.98 51.2739 17.0775 51.3051 17.1245C51.3763 17.2272 51.4405 17.3403 51.5117 17.4308C51.5603 17.4256 51.5689 17.4586 51.6314 17.4412C51.6019 17.5596 51.798 17.5839 51.7998 17.7319C52.1 17.7945 52.1972 18.0591 52.527 18.0921C52.5739 18.0834 52.5669 18.0243 52.6294 18.0277C52.6832 18.1148 52.855 18.1217 52.9678 18.0956C53.0078 18.073 52.9991 18.0051 53.0321 17.9773C53.1258 17.9738 53.3028 17.9042 53.3774 17.8937C53.3566 17.8885 53.4451 17.8119 53.4625 17.7736C53.4885 17.7736 53.5163 17.7684 53.5423 17.7667C53.5475 17.7179 53.5753 17.6901 53.6256 17.6849C53.6152 17.5126 53.8409 17.4656 53.8652 17.2672C53.8027 17.2637 53.6951 17.0775 53.7367 17.0496C53.7263 16.9939 53.6656 16.9574 53.7437 16.9156C53.6985 16.853 53.6829 16.5971 53.6899 16.4074C53.6742 16.4649 53.6482 16.3918 53.61 16.4144C53.6013 16.4875 53.5128 16.4718 53.5632 16.5519C53.4295 16.6198 53.1501 16.6546 53.2282 16.8251C53.0459 16.9035 52.9244 17.1019 52.6537 17.0392C52.3378 16.7851 52.1538 16.404 52.0323 15.9671C51.9109 15.8749 51.8952 15.6834 51.8831 15.485C51.8345 15.492 51.8223 15.4607 51.8067 15.4346C51.8032 15.184 51.6557 15.0691 51.6713 14.7993C51.5516 14.4895 51.4891 14.1484 51.4509 13.8108C51.4336 13.6716 51.4214 13.6141 51.4162 13.5114C51.4145 13.4714 51.4353 13.4088 51.4283 13.3774C51.4214 13.3426 51.3815 13.3235 51.3763 13.2852C51.3607 13.1512 51.4214 12.9754 51.3312 12.8919L51.2895 11.5274C51.3485 11.3238 51.2617 11.1358 51.2947 10.9409C51.3051 10.8678 51.293 10.8452 51.293 10.7895C51.2895 10.5841 51.3225 10.3631 51.3242 10.1995C51.3259 9.95237 51.4075 9.74004 51.3867 9.52946C51.4613 9.55208 51.4023 9.44244 51.4752 9.46681C51.536 9.47029 51.4804 9.53468 51.555 9.4581C51.5898 9.57993 51.8171 9.45288 51.9577 9.44592C52.0254 9.44244 52.2302 9.49639 52.2719 9.49813C52.4003 9.49987 52.5131 9.45288 52.5947 9.49291C52.6468 9.46506 52.6589 9.39893 52.7266 9.38849C52.704 9.44766 52.7075 9.42503 52.7144 9.48421C52.7717 9.48421 52.7821 9.43548 52.8411 9.43548C53.1761 9.56078 53.7124 9.52424 54.1133 9.52598C54.1585 9.42678 54.2418 9.46158 54.3251 9.43374C54.3025 9.51205 54.2383 9.45114 54.2348 9.51554C54.4518 9.48073 54.6913 9.51554 54.8267 9.60429C55.0245 9.56601 55.2207 9.68087 55.4237 9.63388C55.4151 9.64432 55.3647 9.71046 55.4133 9.70872C55.448 9.70002 55.5227 9.61648 55.5383 9.66173C55.514 9.66521 55.4914 9.67217 55.4932 9.70349C55.6424 9.68609 55.6459 9.8027 55.8056 9.77311C55.7761 9.85143 55.8594 9.82706 55.8299 9.90538C55.8941 9.88624 55.901 9.91756 55.9479 9.91408C56.1249 10.1229 55.8698 10.793 55.7882 11.0819C55.7379 11.2507 55.4515 12.4342 55.4133 12.6099C55.3803 12.7526 55.3179 12.9075 55.2936 13.0172C55.2866 13.0537 55.3179 13.0589 55.3075 13.092C55.3022 13.1112 55.2675 13.1129 55.2623 13.1529C55.2554 13.2312 55.2675 13.3148 55.2623 13.4001C55.2536 13.5201 55.2762 13.5689 55.2779 13.6646C55.2814 13.997 55.3404 15.0169 55.5539 15.1126C55.5678 15.2188 55.6268 15.2779 55.6546 15.3702C55.7552 15.3771 55.7327 15.4015 55.842 15.4137C55.9149 15.4276 55.9687 15.4259 56.0121 15.4398C56.0555 15.4206 56.3384 15.4363 56.354 15.4311C56.4304 15.405 56.4634 15.2953 56.4911 15.2101C56.5571 15.0169 56.8608 14.6723 56.604 14.5574C56.6265 14.4878 56.5658 14.4687 56.6144 14.4234C56.5918 14.4164 56.571 14.406 56.5571 14.3903C56.6092 14.3364 56.5293 14.3068 56.5293 14.2407C56.5311 14.0945 56.604 13.1494 56.5606 13.0172C56.6404 12.8692 56.6821 12.7091 56.7272 12.5281C56.7341 12.5038 56.7046 12.4968 56.7133 12.4533C56.7289 12.3924 56.7758 12.3402 56.7914 12.2775C56.8226 12.1452 57.0865 10.9757 57.1229 10.8278C57.2461 10.2848 57.3798 9.69131 57.0726 9.37108C57.1125 9.32931 57.0743 9.34672 57.083 9.29451C56.9528 9.22663 56.9112 9.0787 56.7793 9.01431C56.7584 8.90988 56.656 8.91162 56.5762 8.87856C56.5484 8.86811 56.5328 8.81938 56.505 8.8072C56.3158 8.72366 55.8802 8.77761 55.6615 8.72366C55.6112 8.71148 55.5713 8.66797 55.5296 8.65753C55.3075 8.60532 55.0575 8.65927 54.8597 8.57747C54.8076 8.59836 54.7486 8.61054 54.6757 8.61054C54.5559 8.53918 54.3199 8.5531 54.1845 8.5357C53.8721 8.49393 53.3531 8.50611 53.1084 8.48697C53.0824 8.51482 53.0789 8.55833 53.0355 8.56877C53.0199 8.5444 53.0269 8.49915 53.0095 8.47653C52.652 8.5096 52.3309 8.42432 52.0202 8.51482C51.9751 8.34078 51.6644 8.49915 51.5325 8.42084C51.5412 8.37559 51.5446 8.33033 51.5516 8.28683C51.5342 8.24158 51.621 8.08146 51.5793 7.96311C51.5308 7.94571 51.5308 7.8848 51.5932 7.8674C51.5672 7.8674 51.6245 7.72643 51.6071 7.63941C51.595 7.66377 51.5759 7.68118 51.5394 7.68292C51.496 7.52106 51.6939 7.52802 51.6748 7.33136C51.6575 7.28785 51.6349 7.29307 51.6592 7.29481C51.6956 7.18516 51.6679 6.89974 51.7095 6.83709C51.7286 6.81098 51.746 6.84231 51.7581 6.79358C51.772 6.73093 51.7928 6.65261 51.7703 6.58473C51.7633 6.60388 51.8623 5.83985 51.9126 5.75631C51.8796 5.73195 51.8935 5.66581 51.8779 5.62753C51.982 5.53529 51.9525 5.46393 51.9612 5.39431C51.9855 5.21331 52.2076 4.42144 52.2111 4.41274C52.2667 4.25088 52.251 4.06466 52.2979 3.87844C52.3066 3.84712 52.3482 3.80709 52.3586 3.77924C52.3829 3.71311 52.3604 3.65045 52.3777 3.59128" fill="#BABABA"/>
<path d="M30.2971 11.4298C30.3474 11.6682 30.0802 11.5481 30.0177 11.6595C29.976 11.6004 30.1774 11.4507 30.2971 11.4298Z" fill="#BABABA"/>
<path d="M31.0627 20.2324C30.9898 20.2116 30.9672 20.2498 30.9047 20.2394C30.8995 20.1924 30.9933 20.2568 30.969 20.1855C30.8336 20.1628 30.6982 20.2812 30.5281 20.2655C30.4795 20.2603 30.4431 20.2063 30.3771 20.1942C30.3337 20.1872 30.2782 20.222 30.2348 20.222C30.0404 20.2168 29.8477 20.1663 29.8148 20.088C29.8946 20.034 30.0144 20.095 30.0907 20.0723C30.0682 20.0097 29.9762 20.0723 30.0387 19.9905C29.8911 19.9488 29.8096 19.9174 29.7297 19.9261C29.6933 19.8896 29.6568 19.853 29.6638 19.7834C29.5215 19.7678 29.4937 19.733 29.334 19.6964C29.4069 19.5902 29.1934 19.6146 29.2368 19.4719C29.1969 19.451 29.1847 19.4092 29.124 19.404C29.1344 19.2805 29.006 19.2752 29.0494 19.1238C29.1292 19.1221 29.1223 19.1934 29.2229 19.1778C29.2229 19.1969 29.2195 19.2161 29.2177 19.2352C29.3323 19.2787 29.4624 19.2317 29.5232 19.3396C29.6169 19.2004 29.7679 19.3222 29.879 19.3309C29.9241 19.3344 29.9536 19.3083 30.0005 19.3031C30.1237 19.2892 30.2539 19.3327 30.3736 19.3135C30.4847 19.2961 30.6305 19.2422 30.7381 19.2056C31.021 19.1134 31.2345 18.9654 31.481 18.8175C31.5747 18.687 31.7014 18.6122 31.8246 18.4938C31.9322 18.3929 32.1683 18.1092 32.2464 17.9613C32.2603 17.9351 32.2446 17.8916 32.2533 17.862C32.2776 17.7942 32.3765 17.6532 32.4008 17.5418C32.4078 17.5105 32.3852 17.4687 32.387 17.4426C32.4026 17.2912 32.4633 17.1676 32.4633 17.0371C32.4633 16.9605 32.4303 16.8996 32.4234 16.8196C32.3922 16.5289 32.3644 16.2505 32.2793 15.9842C32.2186 15.7997 32.1231 15.6222 32.0693 15.4377C32.052 15.3785 32.0624 15.3141 32.0468 15.2584C32.0242 15.1871 31.9687 15.0687 31.9131 14.9748C31.9357 14.9086 31.8888 14.8964 31.9062 14.8355C31.8802 14.8112 31.8559 14.7816 31.835 14.752C31.7326 14.296 31.5556 13.9027 31.4549 13.4484C31.4515 13.4015 31.4636 13.3736 31.4827 13.3527C31.4463 13.3458 31.4063 13.2553 31.422 13.1508C31.3716 12.9594 31.3161 12.6931 31.2866 12.4338C31.2814 12.4025 31.3126 12.359 31.3126 12.359C31.3091 12.2981 31.2744 12.2389 31.2692 12.178C31.2467 11.9256 31.2814 11.6872 31.2935 11.454C31.3057 11.2173 31.2467 10.9788 31.3334 10.7717C31.2779 10.6534 31.4167 10.5089 31.3438 10.4411C31.3994 10.415 31.3786 10.3471 31.3994 10.2479C31.4185 10.1609 31.4896 10.0547 31.4376 10.0373C31.5712 9.78842 31.6268 9.47689 31.75 9.18103C31.7587 9.15841 31.8055 9.13752 31.8159 9.10793C31.8246 9.07835 31.8107 9.03658 31.8246 9.00873C31.8593 8.94086 31.9253 8.89213 31.9583 8.82425C31.9895 8.75986 31.9721 8.71809 32.0121 8.65369C32.0676 8.56668 32.1422 8.44311 32.2203 8.3178C32.2707 8.236 32.3488 8.15769 32.3974 8.07763C32.4477 7.99931 32.4581 7.9471 32.5154 7.87227C32.5536 7.82179 32.5813 7.79743 32.6265 7.74348C32.708 7.64602 32.8486 7.52419 32.9319 7.41628C32.9354 7.41106 32.9476 7.36582 32.9562 7.35885C32.9667 7.35015 33.0048 7.37278 33.0152 7.36408C33.0395 7.33971 33.0413 7.29446 33.0621 7.27009C33.1836 7.13782 33.3433 7.03862 33.4821 6.97249C33.4995 6.93768 33.522 6.90461 33.5307 6.85936C33.6227 6.86806 33.6418 6.97249 33.7251 6.89591C33.8535 7.00382 34.0722 7.03688 34.1122 7.22136C34.2961 7.21614 34.2996 7.36581 34.3881 7.43891C34.3673 7.57814 34.3951 7.64428 34.3604 7.75044C34.4107 7.82005 34.4142 7.67386 34.461 7.73826C34.435 7.78699 34.4506 7.88619 34.3517 7.8479C34.3413 7.99061 34.2788 8.07415 34.2441 8.19076C34.225 8.20468 34.1989 8.20816 34.1642 8.20294C34.1104 8.40656 33.9872 8.52317 33.9212 8.71113C33.8258 8.73549 33.7702 8.80337 33.7269 8.89039C33.6418 8.89387 33.6175 8.88691 33.5689 8.89735C33.4908 9.02614 33.3901 9.12882 33.2843 9.22628C33.2739 9.05572 33.5255 9.00873 33.5203 8.77552C33.3867 8.82077 33.3277 9.05398 33.1662 9.00003C33.1211 9.04702 33.0881 9.10793 33.0534 9.16537C33.0534 9.23498 33.1124 9.10097 33.1107 9.17059C33.0881 9.28893 33.0118 9.21584 32.9632 9.29416C32.9337 9.35681 33.0257 9.31504 32.9962 9.37595C32.7966 9.82845 32.538 10.321 32.4078 10.9127C32.3505 11.1738 32.3279 11.487 32.3158 11.7464C32.3054 11.9883 32.3054 12.2441 32.3314 12.4738C32.3592 12.7297 32.3974 12.9872 32.4859 13.1909C32.5241 13.4711 32.5675 13.7756 32.6855 14.0698C32.7167 14.1498 32.7393 14.2716 32.7757 14.3917C32.8243 14.5518 32.9181 14.698 32.9701 14.8582C32.9771 14.8808 32.9597 14.9121 32.9632 14.9365C32.9823 15.0183 33.05 15.0966 33.0795 15.1801C33.1124 15.2758 33.1229 15.3733 33.1524 15.4603C33.1975 15.5821 33.2166 15.6953 33.2773 15.8432C33.3398 15.9964 33.4196 16.1982 33.4422 16.4245C33.4474 16.4645 33.4873 16.4958 33.4925 16.5272C33.496 16.5428 33.4682 16.5742 33.4682 16.5829C33.4891 16.83 33.5897 17.1328 33.5706 17.4339C33.5533 17.7002 33.4387 18.0396 33.3797 18.2606C33.3728 18.2902 33.3919 18.3441 33.3936 18.3407C33.3867 18.3633 33.3398 18.3789 33.3277 18.4137C33.3051 18.4747 33.3381 18.5599 33.2513 18.6035C33.2478 18.6487 33.2426 18.6957 33.2409 18.7392C33.161 18.8419 33.0812 18.9393 33.05 19.096C32.859 19.3361 32.6404 19.5311 32.3852 19.7243C32.347 19.7538 32.3002 19.7799 32.2585 19.813C32.1787 19.8774 32.1457 19.9018 32.0485 19.954C31.9045 20.0323 31.7517 20.1837 31.5764 20.1681C31.4254 20.1855 31.3248 20.1889 31.2432 20.1611C31.2744 20.1124 31.08 20.1593 31.0609 20.2237" fill="#BABABA"/>
<path d="M35.9328 11.1955C36.1532 10.8996 36.7936 10.3949 36.7936 10.3949C36.9845 10.1147 36.9672 10.1321 37.3993 9.85364C37.4427 9.81709 37.4844 9.77881 37.5278 9.74052C37.5712 9.71441 37.6163 9.68831 37.6597 9.6622C37.6389 9.64654 37.7222 9.63435 37.7708 9.58214C37.868 9.57866 37.8385 9.51775 38.0259 9.38026C38.1908 9.31239 38.3678 9.1192 38.5587 9.11572C38.6125 9.12268 38.7306 9.23059 38.6351 9.52819C38.5483 9.71615 38.5449 9.92326 38.373 10.1286C38.281 10.2452 38.1023 10.3723 38.0085 10.4889C37.927 10.6142 37.6996 10.6995 37.5052 10.8544C37.349 10.9797 37.1286 11.0824 36.9654 11.1885C36.7641 11.3208 36.5923 11.3678 36.4881 11.4182C36.4239 11.4966 35.9223 11.7263 35.8303 11.7698C35.6603 11.7976 35.6603 11.6515 35.9328 11.1955ZM48.9898 14.1976C48.9672 14.1419 49.0662 14.1263 48.9759 14.1106C49.0488 13.9923 49.087 13.9209 49.1477 13.8774C49.1495 13.8304 49.1529 13.7852 49.1061 13.7434C49.1929 13.6442 49.1894 13.6059 49.2762 13.4841C49.1616 13.458 49.3213 13.3414 49.2067 13.2752C49.2224 13.2369 49.205 13.2004 49.2415 13.1621C49.1599 13.0855 49.2432 13.0037 49.1217 12.9324C49.0662 12.9811 49.1148 13.0246 49.0384 13.0751C49.0505 13.0855 49.0644 13.0977 49.0766 13.1099C49.0245 13.2091 48.9082 13.2578 48.9325 13.3675C48.785 13.3344 48.7555 13.5067 48.6843 13.5798C48.6566 13.6094 48.6201 13.6094 48.5854 13.6355C48.4934 13.7016 48.4309 13.8113 48.3389 13.8722C48.2522 13.9296 48.122 13.9836 48.0265 14.0253C47.7853 14.135 47.5787 14.1994 47.3305 14.2533C47.0685 14.2777 46.8064 14.2829 46.5929 14.2603C46.428 14.2446 46.277 14.081 46.0948 14.0758C45.9959 13.9609 45.8414 13.9296 45.7372 13.8269C45.4665 13.5676 45.3936 13.1586 45.2617 12.767C45.3155 12.6574 45.2148 12.5913 45.2009 12.5025C45.194 12.452 45.2218 12.3789 45.2183 12.318C45.2096 12.1527 45.1315 12.0448 45.194 11.8881C45.1628 11.8881 45.1506 11.8847 45.1541 11.8499C45.1801 11.6027 45.1246 11.4165 45.1506 11.1937C45.1645 11.0667 45.2166 10.9344 45.2287 10.8004C45.2391 10.6647 45.2652 10.6124 45.2964 10.508C45.3415 10.3653 45.3485 10.1913 45.4005 10.0538C45.4266 9.98591 45.4821 9.925 45.5029 9.86409C45.555 9.69005 45.6244 9.54734 45.6314 9.38548C45.6331 9.33327 45.6019 9.28454 45.6262 9.22188C45.5567 9.2097 45.5637 9.12964 45.4873 9.1279C45.4891 9.06351 45.3988 9.19404 45.4023 9.13312C45.4561 9.03392 45.3103 9.04785 45.4023 8.90862C45.3571 8.85989 45.2218 8.89991 45.2426 8.79201C45.1454 8.78853 45.109 8.79723 45.0586 8.72065C44.9857 8.79897 44.958 8.67889 44.892 8.68933C44.5831 8.77635 44.3887 8.97823 44.3661 9.35241C44.3366 9.39766 44.288 9.42377 44.2689 9.47946C44.2464 9.79621 43.9825 10.2522 44.0155 10.5394C43.7847 10.7221 43.6927 11.0388 43.5625 11.3225C43.5174 11.3295 43.5018 11.366 43.4723 11.3904C43.389 11.6271 43.297 11.7663 43.2067 11.9995C43.113 12.0082 43.1026 12.1022 43.0679 12.1509C42.9516 12.3093 42.7398 12.7444 42.5697 12.7444C42.207 12.7462 41.8703 10.3444 41.8009 10.3653C41.7991 10.2278 41.7367 10.052 41.728 9.92326C41.6308 9.93892 41.61 9.89367 41.5371 9.9337C41.242 9.68483 40.8654 10.059 40.7196 10.3044C40.7456 10.3044 40.7699 10.3079 40.7578 10.3444C40.6918 10.3514 40.6588 10.3932 40.6033 10.414C40.5425 10.602 40.4384 10.743 40.3082 10.8596C40.3065 10.9431 40.1555 11.1711 40.1295 11.1972C39.9941 11.2268 39.8466 11.4948 39.8257 11.5018C39.7893 11.5749 39.7685 11.601 39.7702 11.648C39.7511 11.6863 39.6817 11.7367 39.64 11.7454C39.588 11.8377 39.4161 12.1074 39.3762 12.1475C39.3293 12.1666 39.2686 12.1858 39.2599 12.1997C39.2322 12.2414 39.1315 12.3546 39.0864 12.3998C39.0378 12.4155 38.6681 12.9498 38.6438 12.9741C38.6247 12.995 38.3574 13.2717 38.1838 13.3849C38.1821 13.411 37.6163 14.0114 37.1459 14.3177C36.8283 14.5005 36.3129 14.9181 35.5978 14.5701C35.4919 14.4656 35.2819 14.3403 35.2559 14.2359C35.2316 14.1332 35.2177 14.0201 35.2125 13.9018C35.2125 13.867 35.1968 13.7068 35.1934 13.6755C35.1778 13.5032 35.2125 13.3953 35.268 13.2526C35.3062 13.0211 35.3999 12.8976 35.6012 12.72C35.7332 12.6783 36.0056 12.5251 36.1358 12.6139C36.2139 12.5652 36.3285 12.466 36.4048 12.5234C37.1442 11.9961 38.0693 11.7959 38.7201 11.1676C38.8052 11.0841 39.0898 10.8631 39.1176 10.8039C39.1888 10.656 39.3658 10.3671 39.404 10.3601C39.4283 10.2713 39.5133 10.1025 39.5602 10.066C39.7077 9.44465 39.9229 8.85814 39.437 8.59535C39.4352 8.55706 39.4717 8.54836 39.4717 8.51355C39.2634 8.45438 39.0152 8.13763 38.8173 8.15329C38.7965 8.10456 38.5605 8.115 38.4182 8.0889C37.5122 8.32037 37.1702 8.68759 36.5281 9.14531C36.5333 9.19404 36.2643 9.34023 36.2781 9.3994C36.1566 9.50731 35.99 9.62565 35.8668 9.76488C35.8546 9.78055 35.8217 9.82232 35.8078 9.83624C35.7557 9.89193 35.7175 9.92152 35.6689 9.97895C35.6325 10.0225 35.5735 10.1408 35.5422 10.1826C35.5093 10.2278 35.3895 10.3079 35.3531 10.3514C35.2975 10.4175 35.2507 10.5098 35.2073 10.562C35.1778 10.602 35.1882 10.609 35.1778 10.6264C35.1483 10.6629 35.0823 10.7134 35.058 10.7482C35.0181 10.8056 35.0528 10.9014 34.9417 10.917C34.8011 11.3069 34.513 11.5592 34.4453 11.9386C34.2839 12.0918 34.4089 12.365 34.2492 12.5199C34.2041 12.7288 34.1798 12.8471 34.0774 12.9776C34.0913 13.2578 34.0132 13.5206 33.9889 13.8217C33.9785 13.9714 34.0461 14.0967 34.0739 14.2272C34.1138 14.4152 34.1294 14.671 34.2128 14.7946C34.2787 14.892 34.3412 14.9443 34.4123 15.0313C34.5512 15.1983 34.6935 15.3898 34.7924 15.4455C34.8983 15.5012 35.0042 15.5238 35.0493 15.6178C35.4798 15.6961 35.8286 15.7953 36.3788 15.7187C36.6999 15.6421 37.2761 15.4316 37.3698 15.3724C37.592 15.2262 38.0242 14.9547 38.071 14.8485C38.0276 14.8485 38.3487 14.7302 38.3036 14.6606C38.3192 14.584 38.6039 14.443 38.6716 14.4117C38.6889 14.3717 38.8069 14.2655 38.9753 14.128L38.9944 14.168C39.0048 14.1402 39.0586 14.0793 39.1402 13.9975C39.2651 13.9 39.5793 13.5641 39.6626 13.4684C39.6678 13.4632 39.8292 13.23 39.8622 13.1952C39.9108 13.1395 40.1833 12.8175 40.5113 12.4277C40.5235 12.412 40.5373 12.3963 40.5512 12.3807C40.6311 12.2937 40.7942 12.0796 40.8359 12.0709C40.8359 12.1457 41.0112 12.3789 40.9765 12.4451C41.0181 12.5495 41.0841 12.6487 41.1049 12.7479C41.1778 12.861 41.1847 12.9359 41.2212 13.082C41.2906 13.0925 41.2663 13.2422 41.36 13.3518C41.6238 13.7678 41.7054 14.0514 41.7453 14.0897C41.7887 14.1802 42.082 14.5579 42.1324 14.5474C42.3146 14.6989 42.6461 14.5005 42.8822 14.2812C43.0175 14.1541 43.7743 13.2509 43.8906 13.0264C43.901 13.0072 43.9114 12.962 43.9201 12.955C43.9305 12.948 43.9565 12.821 43.9635 12.821C43.9704 12.821 43.9964 12.8593 44.0016 12.8889C44.0086 12.9306 44.0138 12.9828 44.0155 12.9881C44.1804 13.7434 44.498 14.356 45.0638 14.7354C45.2738 15.073 45.831 15.1618 46.1295 15.355C46.2579 15.3358 46.2996 15.3202 46.3708 15.3585L46.3655 15.3706C46.376 15.3776 46.3881 15.3863 46.4003 15.395C46.4697 15.4055 46.5391 15.4107 46.6085 15.4159C46.6155 15.4194 46.6189 15.4229 46.6172 15.4263C46.7352 15.3933 46.737 15.4716 46.8984 15.4194C46.9071 15.4194 46.9157 15.4194 46.9244 15.4194C47.0216 15.4368 47.1535 15.4089 47.275 15.402V15.3933C47.3062 15.3881 47.3392 15.3828 47.3705 15.3793C47.4642 15.3741 47.5423 15.3341 47.6412 15.3097C47.787 15.2714 47.9397 15.2836 48.0508 15.167C48.1636 15.0852 48.2296 15.0522 48.2695 14.9825C48.2192 14.9686 48.3789 14.8816 48.4309 14.9112C48.4674 14.8538 48.5056 14.8642 48.542 14.8189C48.5177 14.7859 48.4934 14.8851 48.4674 14.8224C48.5455 14.725 48.7086 14.7197 48.8145 14.6049C48.844 14.5718 48.8353 14.5126 48.8735 14.4656C48.8978 14.4343 48.9568 14.4239 48.9863 14.396C49.1148 14.2742 49.2154 14.1228 49.1911 14.0497C49.1026 14.0636 49.061 14.1767 48.995 14.2098" fill="#BABABA"/>
<path d="M19.1077 11.1218C19.4184 10.7772 20.4996 10.0236 20.5291 10.0306L20.6819 9.85828C20.7496 9.83217 21.0724 9.73471 21.1713 9.68946C21.5132 9.52412 21.8534 9.30832 22.2353 9.2561C22.4088 9.14298 22.6067 9.0577 22.7854 9.09599C23.0458 8.92717 23.386 9.03856 23.7071 9.10295C22.8826 9.80258 21.8743 10.2673 20.9197 10.7528C20.7791 10.805 19.7915 11.2158 19.3923 11.308C19.1059 11.3724 18.915 11.2749 19.1094 11.127M30.7936 11.3411C30.7675 11.3637 30.745 11.3498 30.719 11.3585C30.679 11.2819 30.6009 11.3794 30.587 11.3045C30.5072 11.355 30.4812 11.3498 30.4152 11.402C30.3892 11.3707 30.3597 11.3707 30.3302 11.3689C30.3024 11.4037 30.259 11.4246 30.1896 11.4612C30.1965 11.4525 30.2069 11.442 30.2139 11.4333C30.1965 11.442 30.1705 11.4333 30.1358 11.4385C30.1653 11.4072 30.2191 11.3828 30.2295 11.3359C30.1844 11.3167 30.0837 11.3759 30.0004 11.4525C29.9813 11.4699 29.9726 11.5064 29.9535 11.5203C29.9206 11.543 29.8841 11.5343 29.8616 11.5517C29.7852 11.6161 29.7765 11.7187 29.7106 11.764C29.6706 11.7448 29.7366 11.7344 29.714 11.7153C29.6845 11.7361 29.6897 11.7605 29.6515 11.7831C29.662 11.804 29.6446 11.8475 29.6255 11.8736C29.6203 11.8789 29.6134 11.8841 29.6082 11.8893C29.6029 11.8893 29.6012 11.8893 29.5995 11.8841C29.5717 11.898 29.5439 11.9206 29.5127 11.9537C29.3964 12.0216 29.2246 12.1225 29.2055 12.2095C29.2333 12.213 29.2576 12.2113 29.2819 12.2095C29.2715 12.2287 29.3131 12.2809 29.2472 12.2826C29.2194 12.2304 29.1881 12.2687 29.1343 12.2217C28.9434 12.441 28.7004 12.6029 28.4713 12.7786C28.4349 12.8169 28.4713 12.803 28.4627 12.8552C28.1728 13.0136 28.0409 13.3495 27.699 13.4487C27.5688 12.7334 27.3657 12.0825 27.2876 11.3185C27.5827 10.8799 28.0687 10.3491 27.9281 9.74689C28.1016 9.34312 27.7649 9.21955 27.6417 9.02115C27.5133 8.81579 27.272 8.69222 26.944 8.70092C26.3348 9.10643 26.0258 10.0254 26.1369 10.7755C25.972 10.9878 25.6405 11.1984 25.5086 11.4438C24.8283 11.9746 24.1271 12.5245 23.3773 12.9805C22.9694 13.172 22.6397 13.3808 22.2578 13.5688C22.0461 13.6732 21.8135 13.7794 21.5792 13.8716C21.3779 13.9517 21.2633 13.9656 21.0724 14.0213C20.2532 14.251 19.007 14.6722 18.0663 14.5747C17.9483 14.5086 17.7886 14.4772 17.6689 14.4129C17.6671 14.3867 17.6446 14.3746 17.6567 14.3345C17.5283 14.3641 17.4189 14.1222 17.3929 13.9795C17.3235 13.5653 17.747 12.8622 17.9188 12.7978C18.2607 12.8117 18.4291 12.5872 18.705 12.5942C18.9879 12.4741 19.2778 12.3662 19.5832 12.2739C19.6318 12.2461 19.6457 12.2147 19.7047 12.2356C20.2428 12.0338 20.701 11.8388 21.0915 11.71C21.0898 11.6787 22.3706 11.1113 22.5355 11.0087C23.1152 10.7998 23.6151 10.45 24.1253 10.2307C24.1253 10.2203 24.1844 10.1594 24.1861 10.2133C24.0125 10.3926 24.4083 10.1889 24.6912 9.86872C24.8422 9.69642 25.0608 9.46669 25.0782 9.30832C25.0921 9.18997 24.9897 9.08903 25.0886 8.97764C25.0018 8.93587 25.0157 8.80534 24.9758 8.72181C24.7172 8.49034 24.5072 8.20317 24.1896 8.08657C24.0698 8.04306 23.8667 7.98041 23.7071 7.98389C23.6151 7.98389 23.5214 8.03784 23.4259 8.03784C22.1467 8.05176 21.3241 8.47467 20.4077 8.95154C20.3625 9.00375 20.3816 9.02637 20.3573 9.06814C20.1195 9.10469 19.8627 9.31005 19.6527 9.4458C19.1806 9.70512 18.7901 10.0532 18.3648 10.3647C17.8546 10.8747 17.3044 11.3393 16.9121 11.9815C16.8236 12.0442 16.7195 12.0842 16.6223 12.1347C16.6743 12.1242 16.6934 12.1417 16.6761 12.1921C16.5025 12.1469 15.987 12.3418 15.6729 12.3731C15.5427 12.5611 15.1626 12.4445 15.062 12.5976C14.8381 12.622 13.4357 13.0084 13.3489 13.0223C13.2326 13.0501 10.7455 13.6436 10.6691 13.6453C10.5337 13.7411 9.14177 13.9743 9.1435 13.9551C8.79985 14.0021 8.11775 14.2005 8.1247 14.1344C8.0518 14.1274 6.5071 14.2893 5.84236 14.5121C5.77988 14.4094 5.67054 14.5434 5.58202 14.5469C5.53342 14.4668 4.75066 14.573 4.84612 14.6339C4.75066 14.5608 4.78884 14.7296 4.68644 14.6513C4.69165 14.6217 4.73851 14.6374 4.73157 14.5938C4.62916 14.6026 4.55106 14.6391 4.48685 14.6878C4.49379 14.66 4.52156 14.6565 4.53197 14.6304C3.10703 14.7609 1.29331 14.7836 0.276239 14.0247C0.229377 14.016 0.231113 14.0578 0.177309 14.0422C0.13739 14.0247 0.123504 13.983 0.0644934 13.983C-0.109068 14.2614 0.114826 14.4076 0.185987 14.5695C0.121769 14.5799 0.126976 14.5329 0.0870566 14.5677C0.0644936 14.7522 0.304008 14.7766 0.231112 14.9019C1.01214 15.3875 2.03268 15.706 3.07752 15.6433C3.07232 15.6781 3.07579 15.7042 3.08967 15.7216C3.38473 15.692 3.92798 15.6537 3.92103 15.6764C4.15881 15.7286 4.54412 15.6903 4.87389 15.5893C4.90339 15.6798 5.35639 15.4919 5.53342 15.5023C5.51954 15.5197 5.48135 15.5719 5.54731 15.5615C5.73475 15.5093 6.32313 15.4432 6.34395 15.4745C6.40297 15.5163 7.09374 15.4553 6.96183 15.3857C7.10068 15.3544 7.16664 15.3788 7.26383 15.3126C7.20829 15.3144 7.94072 15.1438 7.87997 15.243C7.96849 15.2326 8.04833 15.2134 8.12296 15.1873C8.1542 15.1386 9.3917 15.0046 9.43509 15.0498C9.37955 14.9437 9.73361 14.928 9.59824 14.9941C9.70931 14.9646 10.4955 14.8619 10.4834 14.794C10.6257 14.7714 11.412 14.6617 11.4397 14.6704C11.4831 14.6461 12.2173 14.3937 12.2121 14.4094C12.5609 14.2823 13.4183 14.1083 13.4999 14.1327L13.9998 14.063C13.9217 14.0648 15.1001 13.6854 15.088 13.7846C15.1782 13.7776 15.239 13.7376 15.3102 13.7097C15.3049 13.661 16.1172 13.4295 16.0981 13.5096C16.1866 13.5026 16.2352 13.4591 16.3203 13.4522C16.3029 13.701 16.3012 14.0717 16.4435 14.2353C16.44 14.2736 16.3862 14.2597 16.3966 14.3119C16.5667 14.7296 16.841 15.1647 17.1933 15.4745C17.8494 15.8904 18.9376 15.7947 19.7516 15.6851C20.484 15.5197 21.1453 15.3022 21.7823 15.0498C22.0773 14.935 22.3758 14.7731 22.6622 14.6913C23.0458 14.4216 23.4762 14.204 23.9119 13.9882C24.3423 13.6123 25.2049 13.3199 25.5798 12.8813C25.8158 12.763 26.097 12.401 26.3626 12.3157C26.5656 13.0849 26.734 13.8281 26.8329 14.66C26.7617 14.747 26.7149 14.8601 26.6472 14.9506C26.7166 14.975 26.7236 14.8218 26.7704 14.8949C26.616 15.0707 26.5622 15.3683 26.3782 15.5128C26.3712 15.5511 26.3955 15.5563 26.3903 15.5911C26.3643 15.5841 26.3556 15.5632 26.314 15.5702C26.1178 16.0279 25.828 16.7606 26.1439 17.1661C26.1751 17.5003 26.3782 17.6848 26.5483 17.8936C26.6316 17.8797 26.6385 17.9336 26.7027 17.9354C26.6993 17.9545 26.6975 17.9754 26.6958 17.9928C26.8017 17.9859 26.8832 18.0502 26.9388 18.1355C27.1123 18.1529 27.2061 17.958 27.3397 18.0624C27.4907 17.9232 27.666 17.8083 27.7927 17.6395C27.7979 17.4133 27.9541 17.1557 27.994 16.9625C28.1433 16.2368 27.9836 15.4867 27.9541 14.8741C28.1763 14.4564 28.5182 14.1657 28.749 13.7532C28.7681 13.7794 28.8219 13.7637 28.848 13.7358C28.7942 13.6401 28.9313 13.5705 28.9521 13.4852C29.2437 13.3477 29.3305 12.9875 29.6394 12.8709C29.655 12.7995 29.7001 12.7752 29.6741 12.7142C29.865 12.5802 30.0455 12.4393 30.1896 12.253C30.1601 12.253 30.1358 12.253 30.1115 12.253C30.1531 12.2148 30.2 12.1625 30.2521 12.0947C30.6374 11.811 30.6287 11.7431 30.4517 11.7483C30.4551 11.7448 30.4603 11.7414 30.4638 11.7361C30.4812 11.7135 30.4829 11.6909 30.5037 11.6752C30.5541 11.6335 30.6651 11.623 30.6478 11.5256C30.7172 11.5447 30.7519 11.4733 30.8179 11.4438C30.8248 11.4525 30.8318 11.4629 30.8387 11.4699C30.8734 11.4229 30.8995 11.4559 30.9324 11.4229C30.889 11.3411 30.8335 11.3933 30.7884 11.3359" fill="#BABABA"/>
<path d="M84.7505 13.5152L85.0317 13.5065C85.1028 13.5065 85.1584 13.4925 85.2018 13.463C85.2451 13.4334 85.2642 13.3933 85.266 13.3377C85.266 13.2837 85.2469 13.2419 85.2087 13.2123C85.1705 13.181 85.115 13.1654 85.0438 13.1654H84.754L84.7505 13.5169V13.5152ZM85.292 14.0547L84.9918 13.6596H84.7383L84.7453 14.0373L84.5821 14.0477V13.0105L85.049 13.0035C85.115 13.0035 85.1757 13.0139 85.2278 13.0348C85.2816 13.0557 85.3267 13.0836 85.3597 13.1166C85.3875 13.141 85.4083 13.1723 85.4222 13.2071C85.4378 13.2419 85.4447 13.2802 85.443 13.3255C85.443 13.4177 85.4152 13.4873 85.3632 13.5378C85.3111 13.59 85.2469 13.6231 85.167 13.6422L85.5003 14.0564H85.2903L85.292 14.0547ZM84.9813 12.6659C84.8581 12.6659 84.7436 12.6885 84.6394 12.7355C84.5318 12.7825 84.4363 12.8451 84.3565 12.9252C84.2767 13.0052 84.2142 13.0992 84.1673 13.2054C84.1222 13.3115 84.0996 13.4264 84.0979 13.5482C84.0979 13.6753 84.1187 13.7919 84.1621 13.8981C84.2055 14.0042 84.2663 14.0999 84.3444 14.18C84.4225 14.2601 84.5145 14.3244 84.6221 14.3714C84.7279 14.4184 84.8442 14.4428 84.9709 14.4445C85.1011 14.4445 85.2156 14.4219 85.3198 14.3767C85.4291 14.3297 85.5228 14.267 85.6027 14.187C85.6825 14.1086 85.7467 14.0129 85.7901 13.9068C85.8353 13.8006 85.8596 13.684 85.8596 13.5639C85.8596 13.4369 85.8387 13.3202 85.7953 13.2141C85.7519 13.1062 85.6912 13.0122 85.6131 12.9321C85.535 12.8521 85.443 12.7877 85.3354 12.7407C85.2295 12.6937 85.1132 12.6693 84.9883 12.6676L84.9796 12.6572V12.6676L84.9813 12.6659ZM84.9674 14.5681C84.8269 14.5681 84.6932 14.5403 84.5717 14.4863C84.4502 14.4324 84.3426 14.3575 84.2541 14.267C84.1656 14.1748 84.0944 14.0669 84.0441 13.945C83.9938 13.8232 83.9677 13.6909 83.9695 13.5552C83.9695 13.4125 83.9972 13.2802 84.051 13.1601C84.1048 13.0383 84.1777 12.9321 84.2697 12.8399C84.3617 12.7494 84.4711 12.6763 84.5943 12.6224C84.714 12.5719 84.846 12.5458 84.9831 12.5458C85.1341 12.5458 85.266 12.5754 85.3892 12.6293C85.5107 12.6833 85.6183 12.7581 85.7068 12.8486C85.7953 12.9391 85.8665 13.0487 85.9168 13.1706C85.9689 13.2941 85.9932 13.4247 85.9915 13.5622C85.9897 13.7049 85.962 13.8354 85.9099 13.9572C85.8561 14.0791 85.7832 14.1852 85.6912 14.2775C85.5992 14.3697 85.4899 14.4428 85.3684 14.4933C85.2469 14.5455 85.115 14.5716 84.9796 14.5716H84.9709L84.9674 14.5681Z" fill="#BABABA"/>
<path d="M84.7625 13.4928L84.766 13.1726H85.0437C85.1114 13.176 85.1652 13.1917 85.2016 13.2195C85.2381 13.2474 85.2537 13.2839 85.2537 13.3309C85.2537 13.3884 85.2346 13.4249 85.1947 13.4528C85.153 13.4806 85.1009 13.4945 85.0385 13.4945V13.5172L85.0315 13.4945H84.7625V13.4928ZM84.5698 12.9881V13.0107L84.5612 14.0375V14.0602H84.7573V14.0375L84.7608 13.672H84.9881L85.2728 14.0549L85.2797 14.0636H85.4793L85.5244 14.0671L85.4967 14.0306L85.2033 13.6425C85.2693 13.6216 85.3266 13.5885 85.3717 13.545C85.4255 13.4928 85.4533 13.4197 85.455 13.3309C85.455 13.2787 85.4481 13.2387 85.4324 13.2021C85.4168 13.1673 85.3943 13.1343 85.3665 13.1082C85.3335 13.0734 85.2884 13.0438 85.2328 13.0229C85.1773 13.002 85.1166 12.9916 85.0506 12.9916L84.5924 12.9881H84.5698ZM84.9777 14.457L84.969 14.4343C84.8458 14.4343 84.7313 14.41 84.6271 14.363C84.5212 14.3177 84.4293 14.2533 84.3529 14.1733C84.2765 14.0932 84.2158 13.9992 84.1724 13.8948C84.129 13.7887 84.1082 13.6755 84.1099 13.5554C84.1099 13.4301 84.1342 13.3153 84.1793 13.2108C84.2227 13.1064 84.2869 13.0124 84.365 12.9341C84.4431 12.8558 84.5369 12.7932 84.6427 12.7479C84.7451 12.7027 84.8597 12.68 84.9812 12.68C85.1131 12.68 85.2294 12.7061 85.3335 12.7531C85.4377 12.8001 85.5296 12.8628 85.6077 12.9428C85.6841 13.0211 85.7449 13.1151 85.7865 13.2213C85.8299 13.3275 85.8507 13.4406 85.849 13.5607C85.849 13.686 85.8247 13.8008 85.7813 13.9053C85.7362 14.0097 85.6737 14.1037 85.5956 14.182C85.5158 14.2603 85.422 14.3247 85.3144 14.3682C85.212 14.4134 85.0975 14.4361 84.9777 14.4361V14.4587V14.457ZM84.9812 12.5321C84.8423 12.5321 84.7087 12.5582 84.5872 12.6104C84.4622 12.6644 84.3529 12.7375 84.2592 12.8297C84.1672 12.9219 84.0925 13.0298 84.0387 13.1517C83.9849 13.2752 83.9572 13.4075 83.9572 13.5467C83.9572 13.6912 83.9815 13.8252 84.0335 13.9488C84.0839 14.0706 84.155 14.1802 84.2453 14.2742C84.3355 14.3682 84.4432 14.443 84.5664 14.4952C84.6896 14.5509 84.8232 14.5788 84.9656 14.5788C85.1131 14.5788 85.245 14.5527 85.3682 14.5005C85.4932 14.4483 85.6025 14.3752 85.6963 14.2812C85.79 14.1889 85.8629 14.081 85.9167 13.9575C85.9705 13.8356 85.9983 13.7034 86 13.5641C86 13.4197 85.9757 13.2874 85.9254 13.1621C85.8733 13.0385 85.8021 12.9289 85.7119 12.8367C85.6216 12.7444 85.514 12.6696 85.3908 12.6139C85.2658 12.5599 85.1322 12.5321 84.9899 12.5304H84.9795L84.9812 12.5321ZM85.0385 13.5189C85.1079 13.5189 85.1634 13.5032 85.2086 13.4736C85.2537 13.4423 85.2762 13.3971 85.278 13.3379V13.3327C85.278 13.2805 85.2572 13.2369 85.2155 13.2039C85.1756 13.1708 85.1166 13.1534 85.0437 13.1534H84.7434L84.7399 13.5172L85.0315 13.5206H85.0385M84.5924 13.0107L85.0506 13.0142C85.1148 13.0142 85.1738 13.0246 85.2259 13.0455C85.278 13.0664 85.3214 13.0925 85.3543 13.1256C85.3804 13.1499 85.3995 13.1778 85.4151 13.2108C85.429 13.2439 85.4359 13.2822 85.4359 13.324V13.3292C85.4359 13.4127 85.4099 13.4789 85.3596 13.5276C85.3092 13.5781 85.245 13.6111 85.1686 13.6285L85.4828 14.0427H85.2953L85.0037 13.6512H84.9985L84.7417 13.6494L84.7382 14.0375H84.5872L84.5959 13.009L84.5924 13.0107ZM84.9777 14.457C85.1009 14.457 85.2155 14.4343 85.3231 14.3873C85.4342 14.3404 85.5296 14.276 85.6095 14.1959C85.6911 14.1158 85.7553 14.0201 85.8004 13.9122C85.8473 13.8043 85.8698 13.6877 85.8716 13.5641V13.5589C85.8716 13.4354 85.8507 13.3187 85.8056 13.2091C85.7622 13.0995 85.6997 13.0055 85.6216 12.9237C85.5435 12.8419 85.4498 12.7775 85.3405 12.7305C85.2328 12.6818 85.1148 12.6574 84.9881 12.6557H84.9795C84.8545 12.6557 84.7382 12.6783 84.6323 12.7253C84.523 12.7723 84.4275 12.8367 84.3477 12.9167C84.2661 12.9985 84.2019 13.0925 84.1568 13.2004C84.1099 13.3083 84.0873 13.4249 84.0856 13.5467V13.552C84.0856 13.6755 84.1064 13.7921 84.1498 13.9018C84.1932 14.0114 84.2557 14.1054 84.3338 14.1872C84.4119 14.269 84.5056 14.3334 84.6132 14.3821C84.7208 14.4309 84.8389 14.4552 84.9656 14.4552H84.9742M84.9812 12.5547H84.9916C85.1305 12.5547 85.2624 12.5826 85.3821 12.6365C85.5036 12.6905 85.6077 12.7618 85.6963 12.8541C85.7848 12.9446 85.8542 13.0507 85.9045 13.1726C85.9549 13.2944 85.9792 13.4214 85.9792 13.5589V13.5641C85.9792 13.6999 85.9514 13.8287 85.8976 13.9488C85.8455 14.0689 85.7726 14.175 85.6824 14.2655C85.5904 14.356 85.4845 14.4274 85.3613 14.4796C85.2415 14.5318 85.1131 14.5579 84.976 14.5579H84.9673C84.8267 14.5579 84.6965 14.5301 84.5768 14.4761C84.4553 14.4239 84.3512 14.3508 84.2626 14.2586C84.1741 14.1681 84.1047 14.0619 84.0544 13.9401C84.004 13.8182 83.9797 13.6894 83.9797 13.5537V13.5485C83.9797 13.4127 84.0075 13.2839 84.0596 13.1639C84.1116 13.0438 84.1845 12.9376 84.2748 12.8471C84.3668 12.7566 84.4726 12.6853 84.5959 12.6313C84.7156 12.5808 84.8441 12.5547 84.9812 12.5547Z" fill="#BABABA"/>
<path d="M81.4284 15.8402C81.4302 15.868 81.4336 15.8942 81.4354 15.922C81.3694 15.9377 81.3469 15.8419 81.4284 15.8402ZM81.6558 15.8419C81.6558 15.8559 81.6558 15.868 81.6593 15.882C81.6436 15.8837 81.6315 15.8872 81.6176 15.8889C81.6141 15.875 81.6141 15.8628 81.6124 15.8489C81.6263 15.8472 81.6402 15.8454 81.6541 15.8419M81.1507 15.9516C81.149 15.8802 81.2809 15.8385 81.3104 15.9011C81.2983 15.9498 81.1924 15.9794 81.1507 15.9516ZM81.1195 16.0421C81.0692 16.0456 81.1073 15.9725 81.1125 15.9585C81.1351 15.962 81.1299 15.9986 81.1559 15.9916C81.1542 16.0142 81.1178 16.0125 81.1195 16.0403M81.09 16.1517C81.0622 16.1482 81.0535 16.1204 81.0258 16.1221C81.0292 16.0926 81.0726 16.096 81.1021 16.0856C81.0935 16.1047 81.0865 16.1239 81.09 16.1517ZM80.8418 15.9237C80.8279 15.9272 80.814 15.929 80.8001 15.9307C80.7949 15.8506 80.7706 15.9429 80.7342 15.9011C80.7324 15.8541 80.821 15.8767 80.8522 15.8593C80.8609 15.8907 80.8383 15.8976 80.84 15.9237M80.6613 16.2057C80.6648 16.1883 80.6804 16.1831 80.6786 16.1622C80.6925 16.1587 80.7047 16.1569 80.7168 16.1552C80.7325 16.197 80.6943 16.1987 80.6596 16.2057M80.6422 15.9812C80.5745 16.0073 80.5641 15.9603 80.5519 15.915C80.578 15.9255 80.6092 15.9307 80.6543 15.915C80.6457 15.9342 80.637 15.9533 80.6422 15.9812ZM80.4096 16.3362C80.3159 16.2718 80.2847 16.371 80.1857 16.3536C80.2309 16.244 80.3576 16.2875 80.4582 16.2022C80.4582 16.2405 80.4877 16.2405 80.486 16.2788C80.4513 16.2927 80.3836 16.277 80.4096 16.3362ZM80.158 16.0891C80.2204 16.0769 80.2899 16.0525 80.2864 16.1274C80.2256 16.1395 80.1632 16.15 80.158 16.0891ZM79.8889 16.2823C79.8751 16.23 80.0573 16.1778 80.0504 16.2527C79.9896 16.2387 79.9427 16.2457 79.8889 16.2823ZM79.7015 16.2335C79.7327 16.2005 79.816 16.1517 79.8594 16.1831C79.8108 16.2387 79.7501 16.2353 79.7015 16.2335ZM79.5904 16.378C79.5921 16.3275 79.6407 16.3205 79.6702 16.3414C79.6668 16.371 79.6216 16.3675 79.5904 16.378ZM79.3388 16.3188C79.3092 16.2544 79.3978 16.2753 79.4359 16.2614C79.4377 16.3066 79.3891 16.3118 79.3388 16.3188ZM79.1756 16.5346C79.1617 16.4928 79.1999 16.4911 79.2311 16.4841C79.2242 16.5102 79.2103 16.5294 79.1756 16.5346ZM79.0749 16.552C79.0749 16.5033 79.1235 16.4946 79.153 16.5189C79.1478 16.5468 79.1044 16.5433 79.0749 16.552ZM78.6567 16.4824C78.733 16.4441 78.7105 16.5329 78.7625 16.5259C78.7504 16.5712 78.6497 16.5398 78.6567 16.4824ZM77.5337 16.7121C77.5597 16.6477 77.617 16.5886 77.7177 16.5712C77.7055 16.5729 77.6917 16.5607 77.7142 16.552C77.7437 16.5677 77.794 16.5555 77.8045 16.5955C77.7316 16.592 77.6795 16.6843 77.5337 16.7121ZM77.4608 16.82C77.4695 16.8061 77.4799 16.7957 77.4903 16.787C77.4868 16.8026 77.4764 16.8148 77.4608 16.82ZM77.3966 16.8131C77.3914 16.7835 77.4278 16.7835 77.4608 16.7817C77.4556 16.7939 77.4539 16.8061 77.4556 16.8235C77.4348 16.8287 77.4105 16.8253 77.3966 16.8148M68.5154 8.65939C68.3905 7.61516 68.4877 6.81807 68.446 5.84868C68.4738 5.84346 68.4703 5.81909 68.5068 5.81735C68.4443 5.16297 68.5953 4.61301 68.6248 3.97429C68.8053 3.81069 68.5727 3.25029 68.8192 3.19982C68.7949 3.06929 68.9528 2.85522 68.8574 2.84652C68.9129 2.56284 68.9997 2.30352 69.1594 2.09294C69.1541 2.05987 69.1507 2.0268 69.1455 1.99373C69.2687 1.83014 69.5672 1.61781 69.7911 1.52557C69.8536 1.54298 69.72 1.79707 69.831 1.75008C69.9387 1.8545 69.9664 2.05813 70.0914 2.14167L70.1261 2.34007C70.232 2.44449 70.1434 2.79431 70.2545 2.83434C70.2476 2.80301 70.2285 3.1128 70.2424 3.09714C70.2025 3.67146 70.3187 3.51657 70.2302 4.04564C70.2406 4.11004 70.2997 4.09611 70.2424 4.3885C70.2268 4.39024 70.2025 4.54165 70.1868 4.54339C70.1695 4.51032 70.2077 4.6687 70.1452 4.66348C70.1053 4.72961 70.1539 4.81663 70.1157 4.91583C70.1261 4.93324 70.1539 4.92279 70.1764 4.92453C70.1712 4.94542 70.1695 4.96804 70.1625 4.98893C70.1348 5.01503 70.1087 5.02374 70.0931 5.06376C70.1018 5.09857 70.1261 5.04636 70.1365 5.07595C70.0931 5.14382 70.0758 5.19777 70.0983 5.29349C70.0931 5.31438 70.0896 5.33701 70.0827 5.35963C70.0428 5.39792 70.0011 5.38574 69.9525 5.43969C69.9421 5.48668 69.989 5.60154 69.871 5.61895C69.9282 5.67464 69.8744 5.77384 69.9178 5.81387C69.8658 5.81909 69.831 5.83823 69.8432 5.88871C69.8883 5.94266 69.7495 6.14628 69.6523 6.21068C69.7286 6.25767 69.6627 6.42996 69.7668 6.43344C69.7234 6.46825 69.6818 6.51524 69.6436 6.45781C69.5533 6.63185 69.47 6.81111 69.3971 6.99559C69.4579 6.96426 69.4405 7.03387 69.4492 7.06868C69.3902 7.09479 69.3537 7.13656 69.3156 7.17485C69.3416 7.26883 69.2618 7.35585 69.2427 7.43416C69.2323 7.46897 69.1507 7.68304 69.1056 7.68478C69.0604 7.85882 68.9546 7.99282 68.8712 8.14076C68.7966 8.13728 68.7966 8.23822 68.7862 8.29913C68.5988 8.35134 68.6734 8.58281 68.5172 8.65765M62.9146 10.8697C62.7376 11.2543 62.7636 11.6772 62.439 11.8199L62.4217 11.994C62.3696 12.2968 62.1162 12.4395 61.9409 12.6449L61.9965 12.7214C61.9375 12.892 61.7118 13.1583 61.5574 13.2209C61.2449 13.4681 60.9117 13.8788 60.4622 14.1677C59.9814 14.1747 60.1255 14.387 59.5267 14.3348C59.1448 14.1712 59.1171 13.5307 59.3514 13.3671C59.6603 12.6292 59.8027 12.2498 60.0265 12.0357C60.4535 11.3987 61.3994 10.8906 61.6702 10.5373C62.0329 10.1787 62.6074 9.98382 63.0118 9.81848L62.9146 10.8714V10.8697ZM83.5181 14.9509C83.5233 14.9822 83.5268 15.017 83.5337 15.0501C83.4799 15.0118 83.4539 15.0727 83.3879 15.0779C83.3931 15.0274 83.4608 15.0187 83.4348 14.9474C83.4053 14.9248 83.3341 14.9578 83.322 14.9074C83.407 14.8482 83.3671 14.8795 83.4678 14.8795C83.473 14.8464 83.5303 14.8517 83.499 14.7925C83.414 14.7525 83.2769 14.9143 83.1658 14.8343C83.2092 14.8203 83.2005 14.7733 83.2196 14.7438C83.0894 14.7229 82.9454 14.8099 82.8586 14.8743C82.7735 14.8221 82.6572 14.8778 82.5722 14.9491C82.6364 14.9265 82.626 15.0013 82.7006 14.9648C82.7145 14.9265 82.7597 14.9091 82.7944 14.8865C82.81 14.9387 82.8881 14.9056 82.9089 14.9474C82.8135 14.9805 82.6989 15.0222 82.5635 15.0344C82.567 15.0048 82.5843 14.9961 82.5531 14.977C82.4455 15.01 82.4125 15.0048 82.3049 15.0031C82.3292 14.9961 82.3639 14.9961 82.3639 14.9717C82.2685 14.9752 82.2737 15.0013 82.2667 15.0309C82.1019 15.0153 81.989 15.104 81.8884 15.1841C81.8762 15.1458 81.9109 15.1406 81.9214 15.1162C81.8155 15.1301 81.687 15.1789 81.6037 15.2589C81.576 15.2345 81.5169 15.252 81.5117 15.1945C80.9303 15.3999 80.2256 15.4121 79.7171 15.6174C79.5557 15.5774 79.3266 15.6192 79.16 15.6853C78.7556 15.6418 78.4085 15.7793 78.0613 15.8124C77.9988 15.8176 77.9155 15.8263 77.867 15.7671C77.6847 15.8367 77.5094 15.7601 77.3081 15.8332C76.9019 15.8037 76.4854 15.8367 76.0897 15.8437C75.8397 15.8472 75.602 15.7967 75.3677 15.7758C75.1611 15.7584 74.9702 15.7706 74.7949 15.7427C74.7342 15.7323 74.6786 15.6836 74.6179 15.6731C74.5797 15.6662 74.5103 15.6957 74.4721 15.6801C74.269 15.6035 73.9722 15.5704 73.7379 15.5356C73.5765 15.4295 73.3144 15.4556 73.1843 15.3129C72.9187 15.2694 72.6844 15.1823 72.4952 15.0344C72.0353 14.8499 71.6274 14.5993 71.2629 14.2895C71.2126 14.3017 71.197 14.2686 71.1571 14.2669C71.1258 14.1694 71.0546 14.1242 70.9488 14.1242C71.0008 14.0563 70.9002 14.0702 70.9106 13.9884C70.7145 13.9345 70.6537 13.7048 70.4836 13.6195C70.3135 13.3253 69.9716 13.0539 69.8137 12.664C69.7616 12.6779 69.746 12.6466 69.7234 12.6222C69.5585 12.2167 69.2774 11.9661 69.175 11.4788C69.1489 11.4736 69.1264 11.4649 69.109 11.4492C69.1246 11.2891 68.9476 11.129 68.9615 10.9671C68.958 10.9358 68.9042 10.9671 68.8973 10.941C68.9007 10.7217 68.7706 10.7061 68.7914 10.4485C68.8782 10.4694 68.8331 10.3197 68.8521 10.2727C68.8938 10.2814 68.8747 10.3302 68.9181 10.2832C68.9476 10.2066 68.9407 10.137 69.0379 10.0743C68.9927 9.97512 69.1975 9.89332 69.1628 9.74365C69.3277 9.68796 69.2132 9.43908 69.4128 9.4095C69.4128 9.36947 69.3832 9.36947 69.3815 9.33292C69.4093 9.30333 69.4301 9.29985 69.4631 9.319C69.4874 9.12581 69.7095 9.0649 69.6158 8.88042C69.838 8.79166 69.7009 8.46969 69.9196 8.45403C69.9543 8.35308 69.9369 8.21211 70.0254 8.14772C70.0289 8.08333 69.9786 8.08333 69.9872 8.01197C70.0011 7.97194 70.0237 7.93887 70.0584 7.91625C70.0254 7.70218 70.3656 7.3367 70.3361 7.11219C70.3795 7.03387 70.4975 6.73453 70.5097 6.70668C70.6624 6.43692 70.6485 6.24548 70.6832 6.16368C70.6659 6.1602 70.7631 6.08015 70.7648 6.05056C70.7717 5.96702 70.8169 5.92699 70.8203 5.8452L70.8759 5.70074L70.9002 5.53889L71.0269 5.0481C71.0165 5.04984 71.0078 5.0481 71.0061 5.03766C71.0113 4.98719 71.0373 4.91931 71.0564 4.84622L71.0599 4.81489L71.0425 4.80097L71.098 4.43549C71.1206 4.08219 71.2195 3.99691 71.2022 3.59314C71.19 3.50787 71.2178 3.28162 71.2161 3.2033C71.2161 3.08495 71.1623 2.6777 71.1744 2.56284C71.1744 2.34703 71.1241 2.26871 71.1189 2.22869C71.0755 1.94674 71.0772 2.15037 70.9661 1.88061C70.9522 1.8284 70.9488 1.764 70.9227 1.70483C70.9227 1.64566 70.8377 1.6387 70.8273 1.59867C70.8446 1.51165 70.7804 1.50121 70.7388 1.41071C70.6728 1.25929 70.6312 1.16531 70.534 1.12354C70.5288 1.09222 70.3483 0.881632 70.3465 0.848565C70.1764 0.731959 70.1764 0.778949 70.0011 0.671045C69.9994 0.650161 69.9959 0.631017 69.9925 0.611873C69.713 0.557921 69.4978 0.451758 69.1628 0.524854C69.1472 0.580546 69.1142 0.625796 69.05 0.648421C69.0101 0.655382 69.0188 0.59969 68.9632 0.624055C68.781 0.667565 68.7012 0.78243 68.5276 0.832901C68.2516 1.14791 68.118 1.5656 67.9132 1.93108C67.96 1.94152 67.8715 2.0094 67.9114 2.07379C67.7761 2.1991 67.8143 2.44275 67.7032 2.58546C67.7066 2.61331 67.7188 2.62723 67.7309 2.64116C67.6372 2.86044 67.5851 3.11454 67.5522 3.35123C67.5105 3.61925 67.4307 3.90815 67.4272 4.17269C67.4203 4.44419 67.3578 4.63563 67.3508 4.88277C67.3456 5.04114 67.356 5.1212 67.3127 5.2378C67.3699 5.3109 67.304 5.39096 67.3022 5.46579C67.2745 5.91307 67.2832 6.37253 67.2675 6.84243C67.2641 6.86506 67.2467 6.87724 67.2311 6.88942C67.2623 7.1644 67.2762 7.44287 67.2398 7.76658C67.3248 7.87274 67.271 8.04678 67.2727 8.17034C67.2727 8.32524 67.3231 8.45925 67.3283 8.61066C67.3283 8.61762 67.2953 8.64721 67.2953 8.67853C67.2884 9.12755 67.4289 9.63923 67.4689 10.1787C67.3179 10.3841 67.3161 10.6573 67.0818 10.8018C67.0193 10.995 66.8493 11.0959 66.7434 11.2578C66.5872 11.3378 66.5646 11.6059 66.3945 11.6877C66.3945 11.6877 66.3876 11.6894 66.3858 11.6911C66.3789 11.6946 66.3737 11.6981 66.3668 11.6998V11.7051C66.1602 11.8687 65.5527 12.5631 65.4365 12.4708C65.3584 12.4952 65.1102 12.704 64.8776 12.2742C64.8429 12.2742 64.5339 11.571 64.4871 11.4092C64.4541 11.0124 64.3968 10.6626 64.3847 10.2553C64.3725 10.1474 64.3413 10.0587 64.3066 9.996C64.3934 9.71754 64.3743 9.6984 64.442 9.25286C64.442 9.25286 64.4819 9.13625 64.468 9.05097L64.4905 8.88912C64.4905 8.88912 64.5062 8.53408 64.4992 8.53408L64.3031 8.48709C64.3031 8.48709 64.0723 8.48013 63.9508 8.50102C63.8119 8.51494 63.8779 8.50798 63.7668 8.51842L63.4579 8.53408C63.4579 8.53408 63.3815 8.58978 63.1767 8.60196L62.9806 8.82299L62.6213 8.8752L61.927 9.1467L60.8683 9.82893L60.3164 10.1909C60.1463 10.4294 59.8356 10.5999 59.8356 10.5999L59.4243 10.9863C59.5597 10.8732 59.0581 11.491 58.7648 11.7642C58.6242 12.1019 57.8761 13.4541 58.0323 13.5151C57.8345 14.3992 57.7494 14.4549 58.5999 15.2972C59.1848 15.8767 60.148 15.419 60.4969 15.3042C60.6132 15.2293 60.7104 15.151 60.8024 15.071C61.625 14.7368 61.8021 14.5297 62.5033 13.7013L62.4998 13.7796L62.6682 13.3689C63.0847 12.939 63.0031 12.6553 63.4388 12.1576C63.4544 12.1332 63.4683 12.1123 63.4804 12.0879C63.4856 12.0949 63.4874 12.1001 63.4891 12.1088C63.5585 12.2742 63.6974 12.6153 63.7286 12.8015C63.8501 13.1426 64.4194 13.7918 64.5686 13.9049C64.9626 14.1834 65.466 14.018 65.6309 13.9467C66.0127 13.8057 66.6028 12.9877 66.6844 12.9546L66.6705 12.8955C66.7104 12.8554 66.7503 12.8119 66.7798 12.7475C67.0402 12.537 67.2762 12.0618 67.3352 12.0688C67.4272 11.994 67.4654 11.9122 67.5852 11.8965C67.5487 11.8338 67.6858 11.6702 67.7639 11.6581C67.7691 11.6581 67.8507 11.7573 67.8941 11.6929C68.0156 11.8739 68.0885 12.1227 68.1683 12.3577C68.5311 12.9181 68.8226 13.576 69.2687 14.0285C69.3919 14.3278 69.5568 14.3121 69.6783 14.5854C69.7981 14.5715 69.7929 14.7264 69.8883 14.7507C69.9282 14.9126 70.1695 14.9717 70.291 15.1023C70.2615 15.1475 70.2962 15.1266 70.3014 15.1823C70.3708 15.1615 70.3465 15.2659 70.4333 15.2189C70.435 15.245 70.409 15.2502 70.4212 15.2833C70.475 15.2937 70.5374 15.2989 70.5739 15.3355C70.98 15.7445 71.5042 16.0003 72.0544 16.2196C72.0387 16.2283 72.0127 16.2283 72.0145 16.2474C72.3147 16.3762 72.6063 16.5189 72.9257 16.6251C72.943 16.5503 72.8024 16.5712 72.851 16.5364C72.9291 16.5555 73.0142 16.5677 73.0541 16.6408C73.0957 16.5694 73.0697 16.6599 73.0975 16.6512C73.4932 16.639 73.8455 16.8879 74.3037 16.8722C74.328 16.9436 74.5033 16.9053 74.4478 17.0097C74.545 16.9366 74.7411 17.0689 74.7932 16.921C74.8886 16.9993 74.9338 16.9471 75.0657 16.9105C75.0813 16.9993 75.1733 16.9854 75.2271 17.0219C75.2184 16.9801 75.2982 16.9993 75.3277 16.9836C75.4926 17.0515 75.7564 16.9767 75.864 17.0654C75.7599 17.0654 75.6783 17.0759 75.6002 17.1368C75.6905 17.1629 75.8363 17.1159 75.9161 17.1577C75.9647 17.1089 75.8588 17.0619 75.9422 17.0289C75.9647 17.1263 75.9769 17.0063 76.0237 17.0132C76.0532 17.0393 76.0897 17.0498 76.0966 17.102C76.0498 17.1107 76.0012 17.1211 75.9543 17.1316C76.0602 17.2081 76.2667 17.1524 76.4212 17.1629C76.4351 17.1194 76.35 17.1072 76.409 17.0828C76.5531 17.102 76.6711 17.0828 76.7614 17.0358C76.8429 17.0793 76.9471 17.0271 76.9991 17.0915C77.1154 17.0063 77.315 17.0707 77.4799 17.0619C77.4521 16.9993 77.5424 17.0202 77.5528 16.9871C77.6292 17.0619 77.8548 17.0237 77.9537 16.9906C78.1551 17.0063 78.4466 17.0063 78.6376 16.921C78.6306 16.8479 78.6532 16.8601 78.6237 16.8026C78.5543 16.8235 78.5959 16.8688 78.5421 16.8183C78.5161 16.8357 78.5473 16.8949 78.5109 16.9053C78.4328 16.9279 78.3095 16.921 78.1984 16.9245C78.195 16.8984 78.2193 16.8914 78.2106 16.8618C78.0249 16.9453 77.9381 16.874 77.7645 16.9871C77.8374 16.8322 77.6691 16.961 77.6431 16.8496C77.6778 16.8409 77.7073 16.8409 77.7281 16.8496C77.6986 16.7452 77.5962 16.7991 77.5823 16.8775C77.6049 16.8722 77.6344 16.8775 77.6049 16.8949C77.5424 16.9123 77.5094 16.8548 77.5146 16.7852C77.5823 16.7574 77.6847 16.7696 77.7941 16.733C77.7715 16.639 77.8704 16.6286 77.8756 16.5555C77.9069 16.6617 78.0544 16.6025 78.1325 16.5886C78.1273 16.7104 77.9208 16.6356 77.8947 16.6947C77.9468 16.686 77.9346 16.7678 77.9884 16.7591C77.9867 16.7261 78.1256 16.6999 78.1325 16.7313C78.1047 16.773 78.0145 16.7713 78.0197 16.8357C78.096 16.8218 78.1464 16.7208 78.2054 16.7991C78.2227 16.7522 78.2158 16.686 78.2713 16.6634C78.3755 16.6634 78.5994 16.7052 78.6809 16.5868C78.6584 16.6634 78.7521 16.5868 78.7504 16.6338C78.6966 16.6895 78.6775 16.7626 78.6376 16.7365C78.6289 16.8131 78.7226 16.7504 78.7643 16.7539C78.733 16.6269 78.8181 16.5746 78.8701 16.5903C78.8892 16.5973 78.8632 16.653 78.8979 16.6443C78.9031 16.6443 78.8771 16.5503 78.9083 16.5625C78.9274 16.639 79.0402 16.606 79.0975 16.5659C79.1044 16.5955 79.0975 16.6425 79.1287 16.6443C79.1287 16.6303 79.1287 16.6216 79.1478 16.6199C79.1548 16.6199 79.16 16.6181 79.1652 16.6164C79.1721 16.6164 79.1721 16.6164 79.1652 16.6164C79.2311 16.6007 79.0992 16.5955 79.1652 16.5781C79.2433 16.6321 79.3873 16.5468 79.4932 16.5137C79.4932 16.4824 79.4759 16.4424 79.5019 16.4302C79.5783 16.4232 79.6269 16.4145 79.6494 16.4232C79.639 16.4702 79.5227 16.4424 79.5574 16.5224C79.5609 16.5224 79.5644 16.5242 79.5679 16.5242C79.6564 16.4546 79.7848 16.3867 79.8803 16.4232C79.8681 16.4459 79.8351 16.4511 79.8456 16.4928C79.8733 16.4859 79.9028 16.4824 79.9323 16.4772C79.9306 16.4754 79.9288 16.4754 79.9271 16.4702C79.9236 16.4163 79.8889 16.4371 79.9167 16.3884C80.2725 16.4354 80.6613 16.2875 81.1073 16.1831C81.1056 16.1552 81.1004 16.1256 81.1282 16.1169C81.1403 16.096 81.1802 16.096 81.1785 16.0647C81.2236 16.0734 81.1959 16.1204 81.1559 16.1326C81.1837 16.1674 81.241 16.1639 81.3139 16.1413C81.3174 16.0873 81.3417 16.0525 81.3764 16.0421C81.4128 16.0142 81.4649 15.9968 81.4545 15.9324C81.4822 15.9324 81.4996 15.9464 81.5117 15.9655C81.5152 15.9638 81.5169 15.962 81.5221 15.9603C81.5499 15.9847 81.5881 15.9968 81.5968 16.0473C81.576 16.0508 81.5742 16.0682 81.5569 16.0786C81.5135 16.0978 81.5152 16.0577 81.4927 16.0473C81.484 16.056 81.4736 16.0664 81.4614 16.0751C81.5117 16.1448 81.517 16.2196 81.5187 16.2683C81.5465 16.23 81.6037 16.2179 81.6558 16.2005C81.6575 16.1587 81.6228 16.1657 81.6072 16.1482C81.8224 16.0647 82.0515 15.9394 82.2442 15.8837C82.2476 15.9029 82.2494 15.922 82.2511 15.9429C82.39 15.9411 82.4281 15.8715 82.4646 15.8002C82.5184 15.8942 82.6295 15.7775 82.7006 15.8367C82.7215 15.7915 82.7197 15.7306 82.7909 15.7166C82.7961 15.7375 82.7649 15.7532 82.7961 15.7567C82.8811 15.6749 82.8933 15.7567 83.0425 15.7114C83.013 15.6383 83.112 15.6122 83.0443 15.567C82.9228 15.5844 83.0721 15.6766 82.9558 15.6853C82.9176 15.6383 82.8707 15.6261 82.8065 15.6749C82.8152 15.607 82.7666 15.6174 82.7336 15.6052C82.7058 15.647 82.7753 15.6783 82.6833 15.6975C82.6572 15.6714 82.6746 15.6314 82.659 15.5878C82.6451 15.6035 82.6277 15.6157 82.6087 15.6279C82.541 15.7045 82.4577 15.6975 82.3553 15.7619C82.3553 15.7201 82.3414 15.6975 82.3153 15.694C82.3084 15.6992 82.2997 15.7062 82.2928 15.7114C82.2928 15.734 82.3344 15.7462 82.2719 15.7549C82.2667 15.7462 82.265 15.7393 82.2633 15.734C82.239 15.7497 82.2181 15.7549 82.2025 15.734C82.18 15.7601 82.1591 15.7845 82.1522 15.7984C82.1591 15.7828 82.1956 15.8524 82.1366 15.8419C82.1279 15.8141 82.1053 15.8124 82.0671 15.7741C82.0689 15.7706 82.0741 15.7671 82.0758 15.7654C82.0723 15.7584 82.0689 15.7514 82.0706 15.7393C82.0255 15.7688 82.1209 15.8228 82.0203 15.8315C82.0237 15.7932 82.0116 15.7758 81.9804 15.7793C81.9821 15.7828 81.9838 15.7845 81.9856 15.7915C82.0133 15.8419 81.878 15.8698 81.8884 15.8489C81.8728 15.8089 81.8849 15.7828 81.8884 15.7636C81.8589 15.7671 81.8432 15.7793 81.7894 15.7688C81.7894 15.7636 81.7981 15.7567 81.8085 15.7497C81.7756 15.7567 81.7738 15.7375 81.7426 15.694C81.7165 15.8054 81.5916 15.788 81.4822 15.7845C81.5031 15.8332 81.4059 15.8872 81.385 15.8454C81.4753 15.8089 81.4562 15.8124 81.4163 15.7567C81.4874 15.654 81.7044 15.701 81.7131 15.6192C81.7756 15.5809 81.7356 15.6801 81.7999 15.6435C81.8554 15.5844 81.9995 15.5374 82.0828 15.5496C82.1088 15.4921 82.2581 15.5182 82.2737 15.4121C82.3396 15.4086 82.3414 15.3599 82.4143 15.3633C82.4004 15.4034 82.3518 15.4382 82.4247 15.4451C82.4507 15.3964 82.4577 15.3337 82.534 15.3216C82.5774 15.3494 82.5149 15.3877 82.5878 15.3912C82.6329 15.3372 82.6225 15.3285 82.6364 15.2815C82.6798 15.3372 82.7093 15.2676 82.7458 15.3198C82.7423 15.2572 82.7718 15.2171 82.836 15.2032C82.8881 15.2694 82.81 15.2398 82.8308 15.325C82.9801 15.2989 83.0912 15.104 83.2092 15.1702C83.2265 15.1266 83.1883 15.0779 83.2786 15.0535C83.3359 15.0483 83.3359 15.1214 83.3741 15.1388C83.4331 15.0727 83.5112 15.1266 83.5754 15.0797C83.591 15.0605 83.5806 14.9526 83.5181 14.9683" fill="#BABABA"/>
</svg>
