<svg width="65" height="43" viewBox="0 0 65 43" fill="none" xmlns="http://www.w3.org/2000/svg">
<path fill-rule="evenodd" clip-rule="evenodd" d="M61.8283 28.4142H62.0014C62.1078 28.4142 62.1844 28.4334 62.2327 28.4807C62.2522 28.4901 62.2621 28.4999 62.2713 28.509C62.3483 28.5755 62.4352 28.7087 62.5412 28.8892L62.7051 29.174H63.052L62.8402 28.8228C62.7338 28.6612 62.6377 28.5377 62.5703 28.4712C62.5256 28.4301 62.4732 28.3979 62.416 28.3764C62.5703 28.367 62.6952 28.3099 62.7916 28.2148C62.8881 28.1196 62.9367 28.0059 62.9367 27.8727C62.9367 27.7778 62.9073 27.6921 62.8498 27.6162C62.7959 27.5338 62.7139 27.4731 62.6185 27.4452C62.5416 27.4168 62.4263 27.3976 62.2717 27.3976C62.2429 27.3976 62.2043 27.3882 62.166 27.3882H61.5399V29.1737H61.8287L61.8283 28.4142ZM61.8283 27.6351H62.2713C62.3582 27.6449 62.4157 27.6544 62.4543 27.6638C62.5067 27.6785 62.5514 27.7124 62.5792 27.7586C62.6079 27.7964 62.6179 27.8443 62.6179 27.9013C62.6189 27.9374 62.6117 27.9732 62.5966 28.006C62.5816 28.0389 62.5591 28.0679 62.531 28.091C62.4827 28.1385 62.3958 28.1574 62.271 28.1672H61.828V27.6351H61.8283ZM18.5813 27.8349H21.1814L18.5813 23.5607L16.3854 19.9613L7.05436 25.4889L8.47949 27.8349H18.5813ZM42.7711 27.8349H55.4731L47.5665 14.8419L38.8231 0.5L35.2213 2.6371L29.5013 6.02764L35.2213 15.4212L42.7711 27.8349ZM38.3322 32.1185C37.4363 31.549 36.3864 31.2163 35.25 31.2163H35.2213C32.0823 31.2352 29.5304 33.7617 29.5304 36.858C29.5304 39.9546 32.0823 42.4808 35.2213 42.5H35.25C36.3864 42.5 37.4363 42.1677 38.3322 41.5978V42.1866H40.9608V27.8352H38.3322V32.1185ZM38.3322 37.4471C38.0531 38.8719 36.772 39.9638 35.25 39.9638H35.2213C33.4975 39.9449 32.1015 38.5581 32.1015 36.858C32.1015 35.1582 33.4975 33.7714 35.2213 33.7617H35.25C36.772 33.7617 38.0527 34.8447 38.3322 36.2692V37.4471ZM50.6774 32.1185C49.761 31.5287 48.6901 31.2152 47.5959 31.2163H47.5665C44.4275 31.2352 41.8759 33.7617 41.8759 36.858C41.8759 39.9546 44.4275 42.4808 47.5665 42.5H47.5959C48.7323 42.5 49.7914 42.1677 50.6774 41.5978V42.1866H53.3066V31.5011H50.6774V32.1185ZM50.6774 37.4471C50.3982 38.8719 49.1171 39.9638 47.5959 39.9638H47.5665C45.8434 39.9449 44.447 38.5581 44.447 36.858C44.447 35.1582 45.8434 33.7714 47.5665 33.7617H47.5959C49.1171 33.7617 50.3979 34.8447 50.6774 36.2692V37.4471ZM62.6569 36.1552C62.5607 36.1073 62.4256 36.06 62.2713 36.003C61.684 35.8036 60.7306 35.5566 59.4016 35.2719C58.2364 35.0151 57.6491 34.6831 57.6491 34.2651C57.6491 33.9705 57.7548 33.733 57.957 33.5622C58.2269 33.3342 58.7078 33.2201 59.4016 33.2201C60.1046 33.2201 60.6149 33.3723 60.9136 33.6665C61.0966 33.847 61.231 34.1696 61.3179 34.6257H64.1107C64.1107 33.2771 63.5521 32.3085 62.4543 31.7197C62.3965 31.6825 62.3352 31.6507 62.2713 31.6249C61.5102 31.2733 60.4993 31.0928 59.2381 31.0928C57.7065 31.0928 56.5513 31.492 55.7813 32.299C55.1652 32.9448 54.8666 33.733 54.8666 34.6639C54.8666 35.8232 55.444 36.6586 56.6191 37.2001C57.0621 37.409 58.1403 37.7035 59.8548 38.0645C61.0008 38.3115 61.5779 38.6631 61.5779 39.1095C61.5779 39.3757 61.463 39.6034 61.2126 39.8123C60.8944 40.0781 60.4128 40.2114 59.7679 40.2114C58.9107 40.2114 58.3042 40.069 57.9481 39.7937C57.5913 39.5278 57.4082 39.1385 57.4082 38.6445H54.481C54.481 39.9553 55.0396 40.9334 56.1661 41.5789C57.0621 42.0823 58.2368 42.3391 59.6913 42.3391C60.6635 42.3391 61.53 42.1774 62.2717 41.8643C62.4259 41.7979 62.5611 41.7311 62.7054 41.6551C63.8514 41.0286 64.4292 40.0312 64.4292 38.6637C64.4289 37.5419 63.8408 36.7058 62.6569 36.1552ZM9.2307 32.1185C8.31021 31.5298 7.23667 31.2165 6.13962 31.2163H6.11055C2.98115 31.2352 0.429199 33.7617 0.429199 36.858C0.429199 39.9546 2.98115 42.4808 6.11055 42.5H6.13962C7.27603 42.5 8.33513 42.1677 9.2307 41.5978V42.1866H11.8596V31.5011H9.2307V32.1185ZM9.2307 37.4471C8.95156 38.8719 7.67045 39.9638 6.13962 39.9638H6.11055C4.3967 39.9449 3.00031 38.5581 3.00031 36.858C3.00031 35.1582 4.3967 33.7714 6.11055 33.7617H6.13962C7.6708 33.7617 8.95156 34.8447 9.2307 36.2692V37.4471ZM25.6398 30.3711H28.5V27.8919H25.6398V30.3711ZM25.6398 42.1862H28.5V31.2163H25.6398V42.1862ZM21.7014 32.1185C20.7808 31.5298 19.7072 31.2165 18.61 31.2163H18.5813C15.4419 31.2352 12.89 33.7617 12.89 36.858C12.89 39.9546 15.4416 42.4808 18.5813 42.5H18.61C19.7072 42.5 20.7809 42.1866 21.7014 41.5978V42.1866H24.3303V27.8352H21.7014V32.1185ZM21.7014 37.4471C21.4223 38.8719 20.1412 39.9638 18.61 39.9638H18.5813C16.8575 39.9449 15.4611 38.5581 15.4611 36.858C15.4611 35.1582 16.8575 33.7714 18.5813 33.7617H18.61C20.1412 33.7617 21.4219 34.8447 21.7014 36.2692V37.4471ZM38.322 27.8349L35.2213 22.7253L27.6044 10.2259L18.5813 15.5828L18.273 15.763L18.5813 16.2664L25.6299 27.8349H38.322Z" fill="#BABABA"/>
</svg>
