<svg width="44" height="43" viewBox="0 0 44 43" fill="none" xmlns="http://www.w3.org/2000/svg">
<path d="M0.693742 0.538129C0.664087 0.559898 0.641846 4.75391 0.641846 9.84042V19.0992L1.82805 20.2601C2.48047 20.8987 3.01426 21.4501 3.01426 21.4937C3.01426 21.5372 2.48047 22.0887 1.82805 22.7272L0.641846 23.8882V42.5L43.6048 42.4637L43.6418 23.9752L42.4186 22.7635C41.7439 22.0959 41.1953 21.5299 41.1953 21.5009C41.1953 21.4719 41.7439 20.9059 42.4186 20.2384L43.6418 19.0266L43.6048 0.523617L22.1715 0.501849C10.3836 0.494593 0.715983 0.509105 0.693742 0.538129ZM40.9729 17.7858L39.3789 19.3531C37.6812 21.022 37.5922 21.1454 37.6812 21.7113C37.7182 21.9726 37.8962 22.1685 39.3048 23.5616C40.2167 24.4614 40.9062 25.2015 40.9358 25.3031C40.958 25.4047 40.9655 28.7135 40.9581 32.668L40.9358 39.8515L3.31081 39.8878L3.3034 32.6898C3.29598 28.728 3.3034 25.4192 3.31081 25.3394C3.31822 25.2596 4.05219 24.4687 4.94926 23.5907L6.57288 21.9798V21.0075L3.31081 17.7858V10.4935C3.31081 6.48085 3.33305 3.17208 3.36271 3.15032C3.38495 3.12129 11.8515 3.10678 22.1715 3.11404L40.9358 3.1358L40.9729 17.7858Z" fill="#BABABA"/>
<path d="M11.6751 7.79485C11.5415 7.89632 11.534 8.04852 11.5118 13.5857C11.5043 17.2239 11.5192 19.3402 11.5712 19.4634L11.6454 19.6519H14.4151C17.467 19.6519 17.6081 19.6374 18.4917 19.1663C18.9447 18.9271 19.6427 18.2024 19.8803 17.724C19.9694 17.5283 20.0808 17.3109 20.1179 17.2457C20.1476 17.1805 20.2515 16.8688 20.3332 16.5644C20.4669 16.0571 20.4817 15.7817 20.4817 13.6799C20.4817 11.1432 20.4446 10.8098 20.0288 9.99811C19.4422 8.82401 18.566 8.14998 17.2145 7.83109C16.7319 7.71513 16.3383 7.69339 14.2369 7.69339C12.2692 7.69339 11.7939 7.71513 11.6751 7.79485ZM16.7467 10.259C17.0586 10.4257 17.2962 10.7519 17.4521 11.2447C17.5635 11.5853 17.5858 11.955 17.5858 13.7161C17.5858 15.6005 17.571 15.8397 17.4373 16.2673C17.3185 16.6441 17.222 16.7963 16.9843 16.9993C16.6279 17.2892 16.2344 17.3544 15.0611 17.3182L14.3557 17.2964L14.3334 13.6944L14.3186 10.0923L14.482 10.0706C14.5785 10.0561 15.0686 10.0633 15.5809 10.0851C16.2715 10.1141 16.5685 10.1576 16.7467 10.259ZM27.1795 7.85283C27.0384 8.01228 26.8602 8.3964 26.7191 8.88924C26.6894 9.0052 26.6152 9.22262 26.5632 9.36033C26.5186 9.49803 26.437 9.72995 26.385 9.86766C26.333 10.0054 26.2513 10.2373 26.2068 10.375C26.1548 10.5127 26.088 10.7229 26.0508 10.8461C26.0137 10.962 25.9469 11.1795 25.8949 11.3172C25.8503 11.4549 25.7687 11.6868 25.7167 11.8245C25.6647 11.9622 25.583 12.1941 25.5385 12.3318C25.4865 12.4695 25.4197 12.6797 25.3825 12.8029C25.3157 13.0421 25.1821 13.419 25.0632 13.7089C25.0261 13.8103 24.9667 13.9843 24.937 14.1075C24.8999 14.2234 24.8331 14.4409 24.7811 14.5786C24.7365 14.7163 24.6548 14.9482 24.6029 15.0859C24.5509 15.2236 24.4692 15.4555 24.4247 15.5932C24.3727 15.7309 24.3058 15.9411 24.2687 16.0643C24.2316 16.1803 24.1648 16.3977 24.1128 16.5354C24.0682 16.6731 23.9866 16.905 23.9346 17.0428C23.8826 17.1805 23.8009 17.4124 23.7564 17.5501C23.7044 17.6878 23.6376 17.898 23.6004 18.0212C23.5262 18.2821 23.3925 18.6517 23.244 19.0141C23.1475 19.2605 23.1475 19.304 23.2589 19.4707L23.3777 19.6519H25.7241L25.8503 19.3982C25.9172 19.2533 26.0063 19.0141 26.0434 18.8691C26.0805 18.7242 26.1474 18.4995 26.1845 18.3836C26.229 18.2603 26.3256 17.9704 26.3998 17.7313C26.4741 17.4921 26.5632 17.2747 26.6077 17.2457C26.6449 17.2167 27.5731 17.1877 28.6646 17.1877H30.6472L30.7512 17.3834C30.8106 17.4993 30.9294 17.8327 31.0185 18.1299C31.5234 19.7823 31.3675 19.6519 32.8451 19.6519C34.0184 19.6519 34.0703 19.6446 34.152 19.4997C34.2337 19.3402 34.1966 19.1228 33.959 18.4923C33.907 18.3546 33.61 17.4559 33.2907 16.4992C32.9788 15.5425 32.6744 14.6438 32.6224 14.5061C32.4293 13.9698 32.3476 13.7379 32.2882 13.5277C32.2511 13.4045 32.1843 13.1943 32.1323 13.0566C32.0877 12.9189 32.0061 12.687 31.9541 12.5493C31.9021 12.4116 31.8204 12.1796 31.7759 12.0419C31.7239 11.9042 31.6571 11.6868 31.6199 11.5708C31.5828 11.4476 31.516 11.2374 31.464 11.0997C31.4195 10.962 31.3378 10.7301 31.2858 10.5924C31.2338 10.4547 31.1373 10.1576 31.0704 9.94013C30.9962 9.72271 30.8922 9.42556 30.8403 9.28785C30.7883 9.15015 30.6695 8.80226 30.5804 8.52686C30.3131 7.67889 30.3502 7.69339 28.724 7.69339C27.38 7.69339 27.3354 7.70063 27.1795 7.85283ZM28.8131 11.0997C28.8725 11.2809 28.9839 11.6216 29.0581 11.8607C29.125 12.0999 29.2289 12.4261 29.2809 12.5855C29.4666 13.1798 29.6002 13.6147 29.7264 14.035C29.8007 14.2742 29.8898 14.5423 29.9195 14.6366C30.068 15.0207 30.0903 15.0134 28.6423 15.0134H27.2909L27.3429 14.7018C27.3726 14.5351 27.4394 14.2669 27.4914 14.1075C27.5434 13.948 27.6473 13.6219 27.7216 13.3827C27.7884 13.1436 27.8924 12.8174 27.9443 12.658C27.9889 12.4985 28.0928 12.1724 28.1597 11.9332C28.5829 10.4837 28.5978 10.4765 28.8131 11.0997ZM11.6603 23.4351C11.6009 23.4931 11.5712 23.8482 11.5712 24.5512C11.5712 25.4137 11.5935 25.5949 11.6974 25.6746C11.7939 25.7543 12.3211 25.7833 14.2221 25.7978C15.5364 25.8123 16.6205 25.8486 16.6205 25.8775C16.6205 25.9138 16.5314 26.066 16.42 26.2182C16.0487 26.7545 15.4992 27.5155 15.0537 28.1315C14.8087 28.4722 14.4597 28.9578 14.274 29.2187C14.0884 29.4796 13.7543 29.9507 13.5241 30.2696C12.7147 31.3929 12.3137 31.9438 11.9276 32.4801L11.534 33.0236V34.0456C11.534 34.8066 11.5637 35.0965 11.638 35.1834C11.7271 35.2921 12.1281 35.3066 15.9893 35.3066C20.0065 35.3066 20.2441 35.2994 20.3555 35.1762C20.5263 34.995 20.5411 33.2411 20.3778 33.0164C20.2738 32.8859 20.1476 32.8787 17.7046 32.857C15.5438 32.8425 15.1354 32.8207 15.1354 32.7337C15.1354 32.6395 15.4695 32.1539 16.3977 30.8856C16.8878 30.2261 17.6229 29.2114 18.3432 28.2258C18.6402 27.8126 19.0857 27.2111 19.3308 26.885C19.5833 26.5516 19.8877 26.124 20.0214 25.9355L20.259 25.5876V24.5802C20.259 23.7613 20.2367 23.5511 20.1402 23.4641C20.0362 23.3626 19.5536 23.3481 15.8854 23.3481C12.7667 23.3481 11.7271 23.3699 11.6603 23.4351ZM24.2242 23.5003C24.0905 23.6453 24.0831 23.8482 24.0831 29.3274C24.0831 34.8065 24.0905 35.0095 24.2242 35.1544C24.3578 35.2921 24.4395 35.3066 25.4197 35.3066C26.3479 35.3066 26.4889 35.2921 26.5929 35.1762C26.7043 35.053 26.7191 34.7123 26.7191 31.8061C26.7191 29.2622 26.7414 28.5664 26.8157 28.5664C26.8602 28.5664 26.9419 28.6389 26.9864 28.7331C27.0607 28.8853 27.7587 30.1898 28.5087 31.5959C28.6943 31.9438 29.1324 32.7627 29.4814 33.4223C29.8304 34.0818 30.172 34.7051 30.2314 34.8138C30.469 35.2631 30.6101 35.3066 31.7981 35.3066H32.8748L32.9936 35.0892C33.0902 34.908 33.105 34.1615 33.105 29.3274C33.105 24.4933 33.0902 23.7468 32.9936 23.5656L32.8748 23.3481H31.7833C31.0259 23.3481 30.6546 23.3771 30.5952 23.4351C30.5284 23.5003 30.5061 24.3411 30.5061 26.7617C30.5061 28.5446 30.4764 30.0232 30.4467 30.0449C30.3576 30.0956 30.1423 29.7912 29.8081 29.1462C29.6522 28.849 29.37 28.3055 29.177 27.9503C28.9839 27.588 28.6052 26.8922 28.3379 26.3921C27.6844 25.1745 27.1721 24.2251 27.031 23.9642C26.9642 23.841 26.8231 23.6598 26.7266 23.5438L26.5409 23.3481H25.4568C24.4395 23.3481 24.3578 23.3554 24.2242 23.5003Z" fill="#BABABA"/>
</svg>
