<svg width="108" height="31" viewBox="0 0 108 31" fill="none" xmlns="http://www.w3.org/2000/svg">
<path d="M15.2985 0.988892C7.29854 0.988892 0.787354 7.49749 0.787354 15.5C0.787354 23.5025 7.29595 30.011 15.2985 30.011C23.2984 30.011 29.8096 23.4998 29.8096 15.5C29.8096 7.49749 23.2984 0.988892 15.2985 0.988892ZM15.2985 28C8.39554 28 2.8011 22.4055 2.8011 15.5C2.8011 8.597 8.39554 3.00256 15.2985 3.00256C22.2014 3.00256 27.7959 8.59441 27.7959 15.5C27.7959 22.4029 22.2014 28 15.2985 28Z" fill="#BABABA"/>
<path d="M9.87641 7.7038H17.3357L16.1917 9.51376L8.73509 9.51902L9.87641 7.7038ZM15.2776 16.7745H13.0942V16.7771H5.8282L8.12654 13.1468H6.43934L7.58592 11.3316H14.6116L13.4624 13.1468H10.3126L9.14776 14.962H14.2199L18.8558 7.64113L24.6278 16.7745H22.4496L21.303 14.962H17.892L19.0386 13.1442H20.1565L18.8558 11.0835L15.2776 16.7745ZM25.2129 17.9002H25.064V18.2163H24.9909V17.9002H24.842V17.8376H25.2129V17.9002ZM25.7221 18.2163H25.6543V17.9812C25.6543 17.9708 25.6543 17.9603 25.6569 17.9394C25.649 17.9551 25.649 17.9681 25.6386 17.9812L25.5184 18.1666H25.5054L25.3826 17.9759C25.3748 17.9655 25.3669 17.9498 25.3591 17.9368C25.3591 17.9525 25.3669 17.9655 25.3669 17.9786V18.2136H25.3043V17.8349H25.3669L25.5158 18.0647L25.6647 17.8349H25.7221V18.2163ZM8.3617 20.7914C8.3617 21.0239 8.28075 21.2198 8.12144 21.3817C7.95946 21.5437 7.761 21.6272 7.53116 21.6272H6.54649C6.31407 21.6272 6.11812 21.5489 5.96147 21.3922C5.80475 21.2355 5.72639 21.0422 5.72639 20.8045V20.4154H6.33235L6.42114 20.7758C6.46028 20.9247 6.56477 21.0005 6.73193 21.0005H7.39797C7.48151 21.0005 7.54944 20.9717 7.60168 20.909C7.65126 20.8489 7.67479 20.7706 7.67479 20.6792V20.2508C7.67479 20.0419 7.58341 19.9348 7.39797 19.9348H6.56218C6.33493 19.9348 6.13648 19.8538 5.97191 19.6918C5.81259 19.5274 5.72897 19.3315 5.72897 19.1016V18.5349C5.72897 18.3077 5.81 18.1118 5.97191 17.9525C6.1364 17.788 6.33493 17.7096 6.5621 17.7096H7.53375C7.761 17.7096 7.95687 17.788 8.11618 17.942C8.2755 18.0987 8.35127 18.292 8.35127 18.5271V18.8797H7.75056L7.65918 18.561C7.61212 18.4095 7.50504 18.3338 7.35357 18.3338H6.69796C6.61442 18.3338 6.5439 18.3651 6.49425 18.4252C6.44201 18.4878 6.41588 18.5636 6.41588 18.6577V18.9867C6.41588 19.193 6.50727 19.2949 6.69537 19.2949H7.53116C7.75833 19.2949 7.95428 19.3785 8.11618 19.543C8.28067 19.7075 8.35911 19.9035 8.35911 20.1307V20.7914H8.3617ZM10.8116 18.339H9.86872V19.5561H10.8115C10.8925 19.5561 10.9604 19.5248 11.01 19.4647C11.0623 19.402 11.0884 19.3289 11.0884 19.2323V18.6603C11.0884 18.5636 11.0623 18.4904 11.01 18.4304C10.9861 18.4011 10.9557 18.3776 10.9213 18.3617C10.8869 18.3459 10.8494 18.3381 10.8116 18.339ZM11.7832 19.3576C11.7832 19.5874 11.7021 19.7833 11.5402 19.9453C11.3757 20.1072 11.1746 20.1882 10.9474 20.1882H9.86872V21.6272H9.17655V17.707H10.95C11.1798 17.707 11.3783 17.788 11.5428 17.95C11.7048 18.1092 11.7857 18.3052 11.7857 18.5323V19.3577L11.7832 19.3576ZM17.5499 18.339H16.6437V19.4595H17.5499C17.6284 19.4595 17.6961 19.4307 17.7458 19.3733C17.7955 19.3131 17.8216 19.2374 17.8216 19.1435V18.6603C17.8216 18.5662 17.798 18.4904 17.7458 18.4304C17.7223 18.4013 17.6924 18.3779 17.6584 18.3621C17.6245 18.3463 17.5874 18.3384 17.5499 18.339ZM17.9391 21.6272L17.2992 20.0941H16.6436V21.6272H15.9489V17.707H17.6805C17.913 17.707 18.1089 17.788 18.2707 17.95C18.4327 18.1092 18.5137 18.3077 18.5137 18.5323V19.2166C18.5137 19.3942 18.4641 19.5561 18.3675 19.6998C18.2656 19.8409 18.1376 19.9428 17.9861 20.008L18.6731 21.6273L17.9391 21.6272ZM21.6478 18.339H20.6423V21.6272H19.9476V18.3391H18.9525V17.707H21.6479L21.6478 18.339ZM24.7898 20.7914C24.7898 21.0239 24.7089 21.2198 24.5469 21.3817C24.3824 21.5437 24.1865 21.6272 23.954 21.6272H22.9747C22.7395 21.6272 22.5463 21.5489 22.3896 21.3922C22.2329 21.2355 22.1545 21.0422 22.1545 20.8045V20.4154H22.7578L22.8492 20.7758C22.8911 20.9247 22.9929 21.0005 23.1601 21.0005H23.8261C23.9097 21.0005 23.9802 20.9717 24.0298 20.909C24.0794 20.8489 24.1055 20.7706 24.1055 20.6792V20.2508C24.1055 20.0419 24.0141 19.9348 23.826 19.9348H22.9929C22.7631 19.9348 22.5646 19.8538 22.4027 19.6918C22.2433 19.5274 22.1571 19.3315 22.1571 19.1016V18.5349C22.1571 18.3077 22.2407 18.1118 22.4026 17.9525C22.5646 17.788 22.7631 17.7096 22.9929 17.7096H23.9593C24.1917 17.7096 24.385 17.788 24.5443 17.942C24.701 18.0987 24.7819 18.292 24.7819 18.5271V18.8797H24.1787L24.0873 18.561C24.0377 18.4095 23.9358 18.3338 23.7817 18.3338H23.1235C23.0399 18.3338 22.9694 18.3651 22.9198 18.4252C22.8701 18.4878 22.844 18.5636 22.844 18.6577V18.9867C22.844 19.193 22.9381 19.2949 23.1235 19.2949H23.9566C24.1865 19.2949 24.3797 19.3785 24.5417 19.543C24.7115 19.7075 24.7898 19.9035 24.7898 20.1307V20.7914ZM15.1027 20.7863C15.1027 21.0239 15.0243 21.2224 14.8572 21.3818C14.6927 21.5437 14.4993 21.6272 14.267 21.6272H13.3292C13.0942 21.6272 12.8983 21.5463 12.7364 21.3817C12.5744 21.2224 12.4909 21.0239 12.4909 20.7862V18.5322C12.4909 18.3077 12.5744 18.1118 12.7364 17.9498C12.8983 17.7853 13.0967 17.7069 13.3292 17.7069H14.2694C14.5019 17.7069 14.6951 17.7879 14.8597 17.9472C15.0269 18.1065 15.1052 18.3051 15.1052 18.5322V20.7863H15.1027ZM14.1337 18.339H13.4704C13.3841 18.339 13.3162 18.3678 13.264 18.4304C13.2144 18.4905 13.1909 18.5689 13.1909 18.6603V20.6688C13.1909 20.7601 13.2144 20.8359 13.264 20.8959C13.3162 20.9586 13.3841 20.9926 13.4704 20.9926H14.1337C14.2147 20.9926 14.2799 20.9586 14.3322 20.8959C14.387 20.8359 14.4132 20.7575 14.4132 20.6688V18.6603C14.4132 18.5662 14.3871 18.4904 14.3322 18.4304C14.3081 18.4013 14.2778 18.3779 14.2434 18.3621C14.209 18.3462 14.1716 18.3384 14.1337 18.339Z" fill="#BABABA"/>
<path d="M95.4179 0.988892H101.586C105.244 0.988892 107.963 3.70447 107.963 7.37095V30.011H100.971V20.1302H97.2724V14.3685H100.971V8.40327C100.971 7.4574 100.479 6.75559 99.3252 6.75559H97.684C96.5306 6.75559 96.0377 7.66084 96.0377 8.40327V30.011H89.0464V7.37095C89.0464 3.70447 91.7596 0.988892 95.4179 0.988892Z" fill="#BABABA"/>
<path d="M68.7125 30.006V7.41158C68.7125 3.71974 71.4461 0.988892 75.1348 0.988892H86.5263V6.79133H77.4111C76.2525 6.79133 75.7548 7.70147 75.7548 8.44909V12.5936H83.625V18.3961H75.7548V30.006H68.7125Z" fill="#BABABA"/>
<path d="M66.1925 0.988892H59.1554V30.006H66.1925V0.988892Z" fill="#BABABA"/>
<path d="M38.8314 30.006V7.41158C38.8314 3.71974 41.565 0.988892 45.2486 0.988892H56.6352V6.79133H47.5249C46.3665 6.79133 45.8686 7.70147 45.8686 8.44909V12.5936H53.7441V18.3961H45.8738V30.006H38.8314Z" fill="#BABABA"/>
</svg>
