<svg width="138" height="23" viewBox="0 0 138 23" fill="none" xmlns="http://www.w3.org/2000/svg">
<path fill-rule="evenodd" clip-rule="evenodd" d="M11.5896 22.1111C5.16474 20.8365 0.320801 16.5676 0.320801 11.4994C0.320801 10.2772 0.595971 9.10161 1.10266 8.00211C8.7482 9.28935 11.7696 16.6793 11.5896 22.1111ZM15.4762 22.5C15.6103 22.5 15.7444 22.4984 15.8777 22.4968C15.5542 14.1698 16.6845 4.21327 17.3315 0.58207C16.0967 0.472643 14.855 0.472643 13.6202 0.58207C14.2672 4.21327 15.3975 14.1698 15.074 22.4968C15.2073 22.4984 15.3414 22.5 15.4762 22.5ZM16.6042 22.4778C16.9004 22.4636 16.9729 22.4438 17.2645 22.4192C16.9378 11.9684 20.9547 5.35951 23.227 2.04596C22.2554 1.6277 21.2503 1.29483 20.2227 1.05102C18.2147 4.62281 16.6845 13.3016 16.6042 22.4778ZM17.9575 22.34C18.0736 22.3479 18.3761 22.3273 18.6107 22.2639C18.6037 11.0036 25.3855 7.24244 28.2417 5.57101C27.561 4.80728 26.7923 4.12961 25.9522 3.55262C18.5374 9.94525 17.8008 16.1517 17.9575 22.34ZM19.3622 22.1111C25.787 20.8365 30.6301 16.5676 30.6301 11.4994C30.6301 10.2772 30.3557 9.10161 29.8483 8.00211C22.2035 9.28935 19.1821 16.6793 19.3622 22.1111ZM14.3475 22.4778C14.0513 22.4636 13.9788 22.4438 13.6872 22.4192C14.0139 11.9684 9.99699 5.35951 7.72469 2.04596C8.69622 1.62747 9.70134 1.29459 10.729 1.05102C12.7362 4.62281 14.2672 13.3016 14.3475 22.4778ZM12.9942 22.34C12.8773 22.3479 12.5756 22.3273 12.3402 22.2639C12.3472 11.0036 5.5662 7.24244 2.70925 5.57101C3.3901 4.80747 4.15876 4.12981 4.9987 3.55262C12.4143 9.94525 13.1509 16.1517 12.9942 22.34ZM49.4758 17.2314L55.3573 4.94997H61.9645L67.9263 17.2314H57.4519L56.1626 14.6926H62.2857L58.7412 7.40642L53.9066 17.2314H49.4758ZM34.9736 17.5578L45.1651 17.5641C48.5162 17.5641 51.2329 14.8225 51.2329 11.4186C51.2329 8.01321 48.5162 5.27317 45.1651 5.27317L34.9736 5.27792V17.5578ZM39.3241 15.0087V7.80883H43.2319C45.1822 7.80883 46.7647 9.4359 46.7647 11.4194C46.7647 13.4014 45.183 15.0293 43.2319 15.0293H39.3241V15.0087ZM99.9919 4.94997L96.7701 12.7273L94.3521 7.48801L95.48 4.86759H89.5182L90.7273 7.40642L88.2289 12.7273L85.0056 4.94997H68.4096V17.2314H81.5422V14.6926H73.0025V12.4833H80.4945V9.78049H73.0813V7.65198H82.2664L86.1336 17.2314H89.6796L92.4991 11.3371L95.3187 17.3138H98.8647L103.939 4.95076L99.9919 4.94997ZM128.434 3.78235C124.147 3.78235 120.569 6.19523 119.733 9.40501C118.896 6.19523 115.318 3.78235 111.031 3.78235C106.122 3.78235 102.144 6.9446 102.144 10.8459C102.144 14.7457 106.123 17.9087 111.031 17.9087C115.318 17.9087 118.896 15.4966 119.733 12.2861C120.569 15.4966 124.147 17.9087 128.434 17.9087C133.343 17.9087 137.321 14.7465 137.321 10.8459C137.321 6.9446 133.342 3.78235 128.434 3.78235ZM128.434 15.4768C126.169 15.4768 124.332 13.4022 124.332 10.8451C124.332 8.28729 126.168 6.21345 128.434 6.21345C130.7 6.21345 132.536 8.28729 132.536 10.8451C132.535 13.4022 130.7 15.4768 128.434 15.4768ZM111.03 15.4768C108.765 15.4768 106.928 13.4022 106.928 10.8451C106.928 8.28729 108.764 6.21345 111.03 6.21345C113.296 6.21345 115.132 8.28729 115.132 10.8451C115.132 13.4022 113.296 15.4768 111.03 15.4768Z" fill="#BABABA"/>
</svg>
