<svg width="14" height="14" viewBox="0 0 14 14" fill="none" xmlns="http://www.w3.org/2000/svg">
<path d="M3.00004 6.33325C3.00004 6.15644 3.07028 5.98687 3.1953 5.86185C3.32033 5.73682 3.4899 5.66658 3.66671 5.66658C3.84352 5.66658 4.01309 5.73682 4.13811 5.86185C4.26314 5.98687 4.33337 6.15644 4.33337 6.33325C4.33337 6.51006 4.26314 6.67963 4.13811 6.80466C4.01309 6.92968 3.84352 6.99992 3.66671 6.99992C3.4899 6.99992 3.32033 6.92968 3.1953 6.80466C3.07028 6.67963 3.00004 6.51006 3.00004 6.33325ZM3.66671 8.33325C3.4899 8.33325 3.32033 8.40349 3.1953 8.52851C3.07028 8.65354 3.00004 8.82311 3.00004 8.99992C3.00004 9.17673 3.07028 9.3463 3.1953 9.47132C3.32033 9.59635 3.4899 9.66658 3.66671 9.66658C3.84352 9.66658 4.01309 9.59635 4.13811 9.47132C4.26314 9.3463 4.33337 9.17673 4.33337 8.99992C4.33337 8.82311 4.26314 8.65354 4.13811 8.52851C4.01309 8.40349 3.84352 8.33325 3.66671 8.33325ZM5.66671 6.33325C5.66671 6.15644 5.73695 5.98687 5.86197 5.86185C5.98699 5.73682 6.15656 5.66658 6.33337 5.66658C6.51018 5.66658 6.67975 5.73682 6.80478 5.86185C6.9298 5.98687 7.00004 6.15644 7.00004 6.33325C7.00004 6.51006 6.9298 6.67963 6.80478 6.80466C6.67975 6.92968 6.51018 6.99992 6.33337 6.99992C6.15656 6.99992 5.98699 6.92968 5.86197 6.80466C5.73695 6.67963 5.66671 6.51006 5.66671 6.33325ZM6.33337 8.33325C6.15656 8.33325 5.98699 8.40349 5.86197 8.52851C5.73695 8.65354 5.66671 8.82311 5.66671 8.99992C5.66671 9.17673 5.73695 9.3463 5.86197 9.47132C5.98699 9.59635 6.15656 9.66658 6.33337 9.66658C6.51018 9.66658 6.67975 9.59635 6.80478 9.47132C6.9298 9.3463 7.00004 9.17673 7.00004 8.99992C7.00004 8.82311 6.9298 8.65354 6.80478 8.52851C6.67975 8.40349 6.51018 8.33325 6.33337 8.33325ZM8.33337 6.33325C8.33337 6.15644 8.40361 5.98687 8.52864 5.86185C8.65366 5.73682 8.82323 5.66658 9.00004 5.66658C9.17685 5.66658 9.34642 5.73682 9.47144 5.86185C9.59647 5.98687 9.66671 6.15644 9.66671 6.33325C9.66671 6.51006 9.59647 6.67963 9.47144 6.80466C9.34642 6.92968 9.17685 6.99992 9.00004 6.99992C8.82323 6.99992 8.65366 6.92968 8.52864 6.80466C8.40361 6.67963 8.33337 6.51006 8.33337 6.33325ZM0.333374 3.66658C0.333374 2.78253 0.684563 1.93468 1.30968 1.30956C1.93481 0.684441 2.78265 0.333252 3.66671 0.333252H10.3334C11.2174 0.333252 12.0653 0.684441 12.6904 1.30956C13.3155 1.93468 13.6667 2.78253 13.6667 3.66658V10.3333C13.6667 11.2173 13.3155 12.0652 12.6904 12.6903C12.0653 13.3154 11.2174 13.6666 10.3334 13.6666H3.66671C2.78265 13.6666 1.93481 13.3154 1.30968 12.6903C0.684563 12.0652 0.333374 11.2173 0.333374 10.3333V3.66658ZM3.66671 1.66659C3.25294 1.66637 2.84929 1.79449 2.51139 2.03329C2.17348 2.27209 1.91796 2.60981 1.78004 2.99992H12.22C12.0821 2.60981 11.8266 2.27209 11.4887 2.03329C11.1508 1.79449 10.7471 1.66637 10.3334 1.66659H3.66671ZM12.3334 4.33325H1.66671V10.3333C1.66671 10.8637 1.87742 11.3724 2.25249 11.7475C2.62757 12.1225 3.13627 12.3333 3.66671 12.3333H10.3334C10.8638 12.3333 11.3725 12.1225 11.7476 11.7475C12.1227 11.3724 12.3334 10.8637 12.3334 10.3333V4.33325Z" fill="#2B2B2B"/>
</svg>
