<svg width="18" height="18" viewBox="0 0 18 18" fill="none" xmlns="http://www.w3.org/2000/svg">
<path d="M14.625 4.875H3.375C2.96079 4.875 2.625 5.21079 2.625 5.625V12.375C2.625 12.7892 2.96079 13.125 3.375 13.125H6.75V14.25H3.375C2.33947 14.25 1.5 13.4105 1.5 12.375V5.625C1.5 4.58947 2.33947 3.75 3.375 3.75H14.625C15.6605 3.75 16.5 4.58947 16.5 5.625V12.375C16.5 13.2887 15.8464 14.0498 14.9813 14.2162C14.925 13.8882 14.7449 13.5853 14.4637 13.3791L14.2096 13.125H14.625C15.0392 13.125 15.375 12.7892 15.375 12.375V5.625C15.375 5.21079 15.0392 4.875 14.625 4.875ZM8.46023 8.41477C8.29935 8.2539 8.0574 8.20577 7.84725 8.29283C7.63703 8.3799 7.5 8.58502 7.5 8.8125V16.6875C7.5 16.9339 7.66035 17.1516 7.89563 17.2247C8.13098 17.2978 8.38643 17.2092 8.526 17.0062L10.3761 14.3152L13.5716 14.9879C13.8152 15.0392 14.0635 14.9243 14.1821 14.7055C14.3006 14.4865 14.2613 14.2158 14.0852 14.0398L8.46023 8.41477ZM8.625 14.8765V10.1705L11.9518 13.4973L10.2409 13.1371C10.0187 13.0903 9.79012 13.1817 9.6615 13.3688L8.625 14.8765Z" fill="white"/>
</svg>
