<svg width="18" height="18" viewBox="0 0 18 18" fill="none" xmlns="http://www.w3.org/2000/svg">
<path d="M8.99982 0C4.0294 0 0 4.04428 0 9.03306C0 13.2692 2.90586 16.8239 6.82582 17.8002V11.7936H4.97006V9.03306H6.82582V7.84359C6.82582 4.76909 8.21216 3.34404 11.2195 3.34404C11.7898 3.34404 12.7736 3.45641 13.1761 3.56842V6.07058C12.9637 6.04818 12.5947 6.03698 12.1364 6.03698C10.6608 6.03698 10.0906 6.59811 10.0906 8.05677V9.03306H13.0303L12.5252 11.7936H10.0906V18C14.5469 17.4598 18 13.6515 18 9.03306C17.9996 4.04428 13.9702 0 8.99982 0Z" fill="#6A6A6A"/>
</svg>
