<svg width="18" height="18" viewBox="0 0 18 18" fill="none" xmlns="http://www.w3.org/2000/svg">
<path d="M9 15.375C8.68935 15.375 8.4375 15.6269 8.4375 15.9375C8.4375 16.2481 8.68935 16.5 9 16.5C9.31065 16.5 9.5625 16.2481 9.5625 15.9375C9.5625 15.6269 9.31065 15.375 9 15.375ZM13.125 9V8.25C13.125 5.97182 11.2782 4.125 9 4.125C6.72182 4.125 4.875 5.97182 4.875 8.25V9H6.75C7.16421 9 7.5 9.33577 7.5 9.75V12.75C7.5 13.1642 7.16421 13.5 6.75 13.5H4.875V13.6875C4.875 14.5807 5.56887 15.3117 6.44696 15.3711L6.5625 15.375L7.40859 15.3748C7.64033 14.7195 8.2653 14.25 9 14.25C9.93195 14.25 10.6875 15.0056 10.6875 15.9375C10.6875 16.8694 9.93195 17.625 9 17.625C8.265 17.625 7.6398 17.1551 7.40832 16.4994L6.5625 16.5C5.0593 16.5 3.83155 15.3207 3.7539 13.8369L3.75 13.6875V8.25C3.75 5.35051 6.10051 3 9 3C11.8995 3 14.25 5.35051 14.25 8.25V12C14.25 12.7908 13.6381 13.4387 12.862 13.4959L12.75 13.5H11.25C10.8654 13.5 10.5484 13.2105 10.505 12.8375L10.5 12.75V9.75C10.5 9.3654 10.7895 9.04837 11.1625 9.00502L11.25 9H13.125ZM6.375 10.125H4.875V12.375H6.375V10.125ZM13.125 10.125H11.625V12.375H12.75C12.9341 12.375 13.0872 12.2423 13.1189 12.0674L13.125 12V10.125Z" fill="white"/>
</svg>
