<svg width="119" height="76" viewBox="0 0 119 76" fill="none" xmlns="http://www.w3.org/2000/svg">
<path d="M0.9 37.9C0.9 30.4333 2.1 23.9 4.5 18.3C6.96667 12.6333 10.4333 8.23333 14.9 5.1C19.3667 1.9 24.6333 0.299995 30.7 0.299995C36.7667 0.299995 42 1.9 46.4 5.1C50.8667 8.23333 54.3 12.6333 56.7 18.3C59.1667 23.9 60.4 30.4333 60.4 37.9C60.4 45.4333 59.2 52 56.8 57.6C54.4667 63.2 51.0667 67.5667 46.6 70.7C42.2 73.7667 36.9 75.3 30.7 75.3C24.5 75.3 19.1667 73.7667 14.7 70.7C10.2333 67.5667 6.8 63.2 4.4 57.6C2.06667 52 0.9 45.4333 0.9 37.9ZM10.6 37.9C10.6 43.8333 11.4 48.9667 13 53.3C14.6 57.5667 16.8667 60.8333 19.8 63.1C22.8 65.3667 26.4333 66.5 30.7 66.5C34.9 66.5 38.5 65.3667 41.5 63.1C44.5 60.8333 46.7667 57.5667 48.3 53.3C49.9 48.9667 50.7 43.8333 50.7 37.9C50.7 31.9 49.9 26.7667 48.3 22.5C46.7667 18.1667 44.5 14.8667 41.5 12.6C38.5 10.2667 34.9 9.1 30.7 9.1C26.4333 9.1 22.8 10.2667 19.8 12.6C16.8667 14.8667 14.6 18.1667 13 22.5C11.4 26.7667 10.6 31.9 10.6 37.9ZM118.736 73.9L69.9359 74V66.5L93.2359 46.4C96.1693 43.9333 98.6026 41.7 100.536 39.7C102.469 37.7 104.003 35.8667 105.136 34.2C106.269 32.4667 107.069 30.7667 107.536 29.1C108.003 27.4333 108.236 25.6333 108.236 23.7C108.236 19.1667 107.003 15.6333 104.536 13.1C102.136 10.5 98.7359 9.2 94.3359 9.2C89.8693 9.2 86.2693 10.7333 83.5359 13.8C80.8693 16.8 79.5026 20.8667 79.4359 26H69.6359C69.7693 20.8667 70.8693 16.3667 72.9359 12.5C75.0026 8.63333 77.8693 5.66666 81.5359 3.59999C85.2693 1.46666 89.5693 0.399994 94.4359 0.399994C99.3026 0.399994 103.503 1.33333 107.036 3.2C110.569 5.06667 113.303 7.7 115.236 11.1C117.236 14.4333 118.236 18.4333 118.236 23.1C118.236 25.6333 117.903 28.0667 117.236 30.4C116.569 32.6667 115.503 34.9333 114.036 37.2C112.636 39.4 110.803 41.7 108.536 44.1C106.269 46.4333 103.536 49 100.336 51.8L81.4359 68.2L78.1359 64.8H118.736V73.9Z" fill="url(#paint0_linear_86_1806)"/>
<defs>
<linearGradient id="paint0_linear_86_1806" x1="-4" y1="-16.25" x2="130.039" y2="99.3377" gradientUnits="userSpaceOnUse">
<stop stop-color="#FF5800"/>
<stop offset="0.207923" stop-color="#F62A4B"/>
<stop offset="0.370809" stop-color="#D42374"/>
<stop offset="0.630174" stop-color="#A0378B"/>
<stop offset="0.864583" stop-color="#64428E"/>
<stop offset="1" stop-color="#2B417A"/>
</linearGradient>
</defs>
</svg>
