<svg width="118" height="76" viewBox="0 0 118 76" fill="none" xmlns="http://www.w3.org/2000/svg">
<path d="M0.9 37.9C0.9 30.4333 2.1 23.9 4.5 18.3C6.96667 12.6333 10.4333 8.23333 14.9 5.1C19.3667 1.9 24.6333 0.299995 30.7 0.299995C36.7667 0.299995 42 1.9 46.4 5.1C50.8667 8.23333 54.3 12.6333 56.7 18.3C59.1667 23.9 60.4 30.4333 60.4 37.9C60.4 45.4333 59.2 52 56.8 57.6C54.4667 63.2 51.0667 67.5667 46.6 70.7C42.2 73.7667 36.9 75.3 30.7 75.3C24.5 75.3 19.1667 73.7667 14.7 70.7C10.2333 67.5667 6.8 63.2 4.4 57.6C2.06667 52 0.9 45.4333 0.9 37.9ZM10.6 37.9C10.6 43.8333 11.4 48.9667 13 53.3C14.6 57.5667 16.8667 60.8333 19.8 63.1C22.8 65.3667 26.4333 66.5 30.7 66.5C34.9 66.5 38.5 65.3667 41.5 63.1C44.5 60.8333 46.7667 57.5667 48.3 53.3C49.9 48.9667 50.7 43.8333 50.7 37.9C50.7 31.9 49.9 26.7667 48.3 22.5C46.7667 18.1667 44.5 14.8667 41.5 12.6C38.5 10.2667 34.9 9.1 30.7 9.1C26.4333 9.1 22.8 10.2667 19.8 12.6C16.8667 14.8667 14.6 18.1667 13 22.5C11.4 26.7667 10.6 31.9 10.6 37.9ZM116.05 9.59999L89.55 34.9L83.15 30.1L108.75 5.49999L108.25 10.4H71.15V1.7H116.05V9.59999ZM90.35 36.6H83.15V30.1C84.2833 29.3667 85.6833 28.9 87.35 28.7C89.0833 28.4333 90.75 28.3 92.35 28.3C95.8833 28.3 99.1833 28.8333 102.25 29.9C105.317 30.9 108.017 32.4 110.35 34.4C112.75 36.4 114.583 38.8333 115.85 41.7C117.183 44.5 117.85 47.7 117.85 51.3C117.85 56.1667 116.717 60.4 114.45 64C112.25 67.6 109.183 70.3667 105.25 72.3C101.383 74.2333 97.0167 75.2 92.15 75.2C87.4167 75.2 83.2167 74.2667 79.55 72.4C75.8833 70.5333 72.9833 67.8333 70.85 64.3C68.7833 60.7 67.75 56.4333 67.75 51.5H77.45C77.45 56.1667 78.7833 59.8333 81.45 62.5C84.1833 65.1 87.8167 66.4 92.35 66.4C97.0167 66.4 100.75 65 103.55 62.2C106.417 59.4 107.85 55.7 107.85 51.1C107.85 46.7667 106.383 43.2667 103.45 40.6C100.517 37.9333 96.15 36.6 90.35 36.6Z" fill="url(#paint0_linear_86_1812)"/>
<defs>
<linearGradient id="paint0_linear_86_1812" x1="-4" y1="-16.25" x2="129.879" y2="98.2909" gradientUnits="userSpaceOnUse">
<stop stop-color="#FF5800"/>
<stop offset="0.207923" stop-color="#F62A4B"/>
<stop offset="0.370809" stop-color="#D42374"/>
<stop offset="0.630174" stop-color="#A0378B"/>
<stop offset="0.864583" stop-color="#64428E"/>
<stop offset="1" stop-color="#2B417A"/>
</linearGradient>
</defs>
</svg>
