<svg width="125" height="76" viewBox="0 0 125 76" fill="none" xmlns="http://www.w3.org/2000/svg">
<path d="M0.9 37.9C0.9 30.4333 2.1 23.9 4.5 18.3C6.96667 12.6333 10.4333 8.23333 14.9 5.1C19.3667 1.9 24.6333 0.299995 30.7 0.299995C36.7667 0.299995 42 1.9 46.4 5.1C50.8667 8.23333 54.3 12.6333 56.7 18.3C59.1667 23.9 60.4 30.4333 60.4 37.9C60.4 45.4333 59.2 52 56.8 57.6C54.4667 63.2 51.0667 67.5667 46.6 70.7C42.2 73.7667 36.9 75.3 30.7 75.3C24.5 75.3 19.1667 73.7667 14.7 70.7C10.2333 67.5667 6.8 63.2 4.4 57.6C2.06667 52 0.9 45.4333 0.9 37.9ZM10.6 37.9C10.6 43.8333 11.4 48.9667 13 53.3C14.6 57.5667 16.8667 60.8333 19.8 63.1C22.8 65.3667 26.4333 66.5 30.7 66.5C34.9 66.5 38.5 65.3667 41.5 63.1C44.5 60.8333 46.7667 57.5667 48.3 53.3C49.9 48.9667 50.7 43.8333 50.7 37.9C50.7 31.9 49.9 26.7667 48.3 22.5C46.7667 18.1667 44.5 14.8667 41.5 12.6C38.5 10.2667 34.9 9.1 30.7 9.1C26.4333 9.1 22.8 10.2667 19.8 12.6C16.8667 14.8667 14.6 18.1667 13 22.5C11.4 26.7667 10.6 31.9 10.6 37.9ZM115.536 1.7V74H106.136V1.7H115.536ZM68.7359 50.7L102.836 1.7H113.336L78.9359 51.3L68.7359 50.7ZM124.136 59.4H68.7359V50.7H124.136V59.4Z" fill="url(#paint0_linear_86_1818)"/>
<defs>
<linearGradient id="paint0_linear_86_1818" x1="-4" y1="-16.25" x2="130.81" y2="105.495" gradientUnits="userSpaceOnUse">
<stop stop-color="#FF5800"/>
<stop offset="0.207923" stop-color="#F62A4B"/>
<stop offset="0.370809" stop-color="#D42374"/>
<stop offset="0.630174" stop-color="#A0378B"/>
<stop offset="0.864583" stop-color="#64428E"/>
<stop offset="1" stop-color="#2B417A"/>
</linearGradient>
</defs>
</svg>
