<svg width="121" height="76" viewBox="0 0 121 76" fill="none" xmlns="http://www.w3.org/2000/svg">
<path d="M0.9 37.9C0.9 30.4333 2.1 23.9 4.5 18.3C6.96667 12.6333 10.4333 8.23333 14.9 5.1C19.3667 1.9 24.6333 0.299995 30.7 0.299995C36.7667 0.299995 42 1.9 46.4 5.1C50.8667 8.23333 54.3 12.6333 56.7 18.3C59.1667 23.9 60.4 30.4333 60.4 37.9C60.4 45.4333 59.2 52 56.8 57.6C54.4667 63.2 51.0667 67.5667 46.6 70.7C42.2 73.7667 36.9 75.3 30.7 75.3C24.5 75.3 19.1667 73.7667 14.7 70.7C10.2333 67.5667 6.8 63.2 4.4 57.6C2.06667 52 0.9 45.4333 0.9 37.9ZM10.6 37.9C10.6 43.8333 11.4 48.9667 13 53.3C14.6 57.5667 16.8667 60.8333 19.8 63.1C22.8 65.3667 26.4333 66.5 30.7 66.5C34.9 66.5 38.5 65.3667 41.5 63.1C44.5 60.8333 46.7667 57.5667 48.3 53.3C49.9 48.9667 50.7 43.8333 50.7 37.9C50.7 31.9 49.9 26.7667 48.3 22.5C46.7667 18.1667 44.5 14.8667 41.5 12.6C38.5 10.2667 34.9 9.1 30.7 9.1C26.4333 9.1 22.8 10.2667 19.8 12.6C16.8667 14.8667 14.6 18.1667 13 22.5C11.4 26.7667 10.6 31.9 10.6 37.9ZM94.5359 75.2C89.6026 75.2 85.3026 74.2333 81.6359 72.3C78.0359 70.3 75.2026 67.5333 73.1359 64C71.1359 60.4 70.1359 56.2 70.1359 51.4H79.8359C79.8359 56.0667 81.1693 59.7333 83.8359 62.4C86.5026 65.0667 90.1359 66.4 94.7359 66.4C98.0026 66.4 100.836 65.7333 103.236 64.4C105.636 63 107.503 61.1 108.836 58.7C110.169 56.2333 110.836 53.3667 110.836 50.1C110.836 46.9667 110.203 44.2 108.936 41.8C107.669 39.3333 105.836 37.4 103.436 36C101.103 34.6 98.2359 33.9 94.8359 33.9C91.8359 33.9 89.0026 34.5667 86.3359 35.9C83.6693 37.1667 81.5026 38.8333 79.8359 40.9L71.5359 38.8L80.3359 1.7H116.536V10.7H83.9359L88.4359 6.7L81.7359 33.6L78.4359 34.3C80.3026 31.4333 82.8359 29.2667 86.0359 27.8C89.2359 26.2667 92.7693 25.5 96.6359 25.5C101.569 25.5 105.836 26.5667 109.436 28.7C113.036 30.7667 115.836 33.6333 117.836 37.3C119.836 40.9667 120.836 45.1 120.836 49.7C120.836 54.7 119.703 59.1333 117.436 63C115.236 66.8 112.169 69.8 108.236 72C104.369 74.1333 99.8026 75.2 94.5359 75.2Z" fill="url(#paint0_linear_3_384)"/>
<defs>
<linearGradient id="paint0_linear_3_384" x1="-14" y1="-4.5" x2="112.5" y2="88.5" gradientUnits="userSpaceOnUse">
<stop offset="0.15625" stop-color="#FF5800"/>
<stop offset="0.348958" stop-color="#F62A4B"/>
<stop offset="0.520833" stop-color="#D42374"/>
<stop offset="0.739583" stop-color="#A0378B"/>
<stop offset="0.864583" stop-color="#64428E"/>
<stop offset="1" stop-color="#2B417A"/>
</linearGradient>
</defs>
</svg>
