<svg width="133" height="133" viewBox="0 0 133 133" fill="none" xmlns="http://www.w3.org/2000/svg">
<path d="M0 66.5C0 29.7731 29.7731 0 66.5 0C103.227 0 133 29.7731 133 66.5V133H66.5C29.7731 133 0 103.227 0 66.5Z" fill="url(#paint0_linear_458_2)"/>
<path d="M46.6563 58.46C46.6563 57.74 46.8363 57.116 47.1963 56.588C47.5563 56.048 48.0603 55.628 48.7083 55.328C49.3563 55.028 50.1123 54.878 50.9763 54.878C51.7563 54.878 52.4343 55.016 53.0103 55.292C53.5983 55.568 54.0663 55.964 54.4143 56.48C54.7623 56.996 54.9663 57.614 55.0263 58.334H53.7123C53.6403 57.614 53.3643 57.056 52.8843 56.66C52.4043 56.252 51.7623 56.048 50.9583 56.048C50.0583 56.048 49.3323 56.264 48.7803 56.696C48.2283 57.128 47.9523 57.71 47.9523 58.442C47.9523 59.006 48.1203 59.474 48.4563 59.846C48.7923 60.206 49.2963 60.47 49.9683 60.638L52.1823 61.178C53.1903 61.418 53.9523 61.826 54.4683 62.402C54.9843 62.966 55.2423 63.686 55.2423 64.562C55.2423 65.294 55.0623 65.936 54.7023 66.488C54.3423 67.04 53.8323 67.466 53.1723 67.766C52.5123 68.066 51.7383 68.216 50.8503 68.216C50.0223 68.216 49.2843 68.078 48.6363 67.802C48.0003 67.526 47.4963 67.13 47.1243 66.614C46.7643 66.098 46.5543 65.492 46.4943 64.796H47.8263C47.8623 65.48 48.1563 66.026 48.7083 66.434C49.2603 66.83 49.9743 67.028 50.8503 67.028C51.7983 67.028 52.5483 66.812 53.1003 66.38C53.6643 65.948 53.9463 65.366 53.9463 64.634C53.9463 64.046 53.7783 63.572 53.4423 63.212C53.1183 62.84 52.6083 62.57 51.9123 62.402L49.7343 61.862C48.7263 61.622 47.9583 61.22 47.4303 60.656C46.9143 60.08 46.6563 59.348 46.6563 58.46ZM60.9568 68.216C60.1168 68.216 59.3728 68.024 58.7248 67.64C58.0888 67.256 57.5908 66.722 57.2308 66.038C56.8708 65.354 56.6908 64.556 56.6908 63.644C56.6908 62.744 56.8648 61.952 57.2128 61.268C57.5728 60.572 58.0648 60.032 58.6888 59.648C59.3128 59.252 60.0388 59.054 60.8668 59.054C61.6588 59.054 62.3488 59.228 62.9368 59.576C63.5368 59.924 63.9988 60.41 64.3228 61.034C64.6588 61.646 64.8268 62.366 64.8268 63.194V63.806H57.3748L57.4108 62.906H63.5848C63.5848 62.066 63.3328 61.394 62.8288 60.89C62.3368 60.374 61.6828 60.116 60.8668 60.116C60.2668 60.116 59.7388 60.254 59.2828 60.53C58.8388 60.806 58.4968 61.202 58.2568 61.718C58.0168 62.222 57.8968 62.822 57.8968 63.518C57.8968 64.67 58.1608 65.564 58.6888 66.2C59.2288 66.836 59.9908 67.154 60.9748 67.154C61.6828 67.154 62.2648 67.004 62.7208 66.704C63.1768 66.404 63.4828 65.966 63.6388 65.39H64.8268C64.5988 66.302 64.1548 67.004 63.4948 67.496C62.8348 67.976 61.9888 68.216 60.9568 68.216ZM68.0546 68H66.8126V59.288H67.8926L68.0726 60.8C68.3606 60.248 68.7686 59.822 69.2966 59.522C69.8366 59.21 70.4246 59.054 71.0606 59.054C72.2606 59.054 73.1246 59.384 73.6526 60.044C74.1806 60.704 74.4446 61.58 74.4446 62.672V68H73.2026V62.942C73.2026 61.922 72.9866 61.208 72.5546 60.8C72.1346 60.392 71.5646 60.188 70.8446 60.188C69.9566 60.188 69.2666 60.488 68.7746 61.088C68.2946 61.676 68.0546 62.462 68.0546 63.446V68ZM80.34 68.216C79.5 68.216 78.78 68.018 78.18 67.622C77.58 67.226 77.118 66.686 76.794 66.002C76.47 65.306 76.308 64.526 76.308 63.662C76.308 62.786 76.47 62 76.794 61.304C77.118 60.608 77.58 60.062 78.18 59.666C78.792 59.258 79.53 59.054 80.394 59.054C81.114 59.054 81.75 59.21 82.302 59.522C82.866 59.834 83.298 60.308 83.598 60.944V54.878H84.84V68H83.76L83.634 66.218C83.322 66.89 82.878 67.394 82.302 67.73C81.726 68.054 81.072 68.216 80.34 68.216ZM80.556 67.082C81.204 67.082 81.75 66.938 82.194 66.65C82.638 66.35 82.98 65.942 83.22 65.426C83.46 64.898 83.58 64.298 83.58 63.626C83.58 62.954 83.46 62.36 83.22 61.844C82.98 61.328 82.638 60.92 82.194 60.62C81.75 60.32 81.204 60.17 80.556 60.17C79.932 60.17 79.392 60.32 78.936 60.62C78.492 60.92 78.15 61.328 77.91 61.844C77.682 62.36 77.568 62.954 77.568 63.626C77.568 64.298 77.682 64.898 77.91 65.426C78.15 65.942 78.492 66.35 78.936 66.65C79.392 66.938 79.932 67.082 80.556 67.082ZM42.6791 83.18V84.296H41.9951C41.1911 84.296 40.5491 84.542 40.0691 85.034C39.6011 85.526 39.3671 86.192 39.3671 87.032V92H38.1251V83.288H39.2951L39.4031 84.998H39.2771C39.3971 84.434 39.6911 83.978 40.1591 83.63C40.6271 83.27 41.1971 83.09 41.8691 83.09C42.0011 83.09 42.1331 83.096 42.2651 83.108C42.3971 83.12 42.5351 83.144 42.6791 83.18ZM47.6502 92.216C46.8102 92.216 46.0662 92.024 45.4182 91.64C44.7822 91.256 44.2842 90.722 43.9242 90.038C43.5642 89.354 43.3842 88.556 43.3842 87.644C43.3842 86.744 43.5582 85.952 43.9062 85.268C44.2662 84.572 44.7582 84.032 45.3822 83.648C46.0062 83.252 46.7322 83.054 47.5602 83.054C48.3522 83.054 49.0422 83.228 49.6302 83.576C50.2302 83.924 50.6922 84.41 51.0162 85.034C51.3522 85.646 51.5202 86.366 51.5202 87.194V87.806H44.0682L44.1042 86.906H50.2782C50.2782 86.066 50.0262 85.394 49.5222 84.89C49.0302 84.374 48.3762 84.116 47.5602 84.116C46.9602 84.116 46.4322 84.254 45.9762 84.53C45.5322 84.806 45.1902 85.202 44.9502 85.718C44.7102 86.222 44.5902 86.822 44.5902 87.518C44.5902 88.67 44.8542 89.564 45.3822 90.2C45.9222 90.836 46.6842 91.154 47.6682 91.154C48.3762 91.154 48.9582 91.004 49.4142 90.704C49.8702 90.404 50.1762 89.966 50.3322 89.39H51.5202C51.2922 90.302 50.8482 91.004 50.1882 91.496C49.5282 91.976 48.6822 92.216 47.6502 92.216ZM52.894 87.608C52.894 86.732 53.056 85.952 53.38 85.268C53.704 84.584 54.166 84.044 54.766 83.648C55.366 83.252 56.086 83.054 56.926 83.054C57.646 83.054 58.294 83.222 58.87 83.558C59.458 83.882 59.908 84.38 60.22 85.052L60.346 83.288H61.426V95.798H60.184V90.326C59.884 90.95 59.452 91.424 58.888 91.748C58.324 92.06 57.67 92.216 56.926 92.216C56.074 92.216 55.348 92.018 54.748 91.622C54.148 91.214 53.686 90.662 53.362 89.966C53.05 89.27 52.894 88.484 52.894 87.608ZM54.154 87.644C54.154 88.304 54.268 88.898 54.496 89.426C54.736 89.942 55.078 90.35 55.522 90.65C55.978 90.95 56.518 91.1 57.142 91.1C57.79 91.1 58.336 90.95 58.78 90.65C59.224 90.35 59.566 89.942 59.806 89.426C60.046 88.898 60.166 88.304 60.166 87.644C60.166 86.972 60.046 86.378 59.806 85.862C59.566 85.334 59.224 84.926 58.78 84.638C58.336 84.338 57.79 84.188 57.142 84.188C56.518 84.188 55.978 84.338 55.522 84.638C55.078 84.926 54.736 85.334 54.496 85.862C54.268 86.378 54.154 86.972 54.154 87.644ZM70.1377 83.288H71.3797V92H70.2997L70.1377 90.524C69.8977 91.028 69.4957 91.436 68.9317 91.748C68.3797 92.06 67.7617 92.216 67.0777 92.216C66.0577 92.216 65.2717 91.892 64.7197 91.244C64.1797 90.596 63.9097 89.744 63.9097 88.688V83.27H65.1697V88.292C65.1697 89.324 65.3797 90.05 65.7997 90.47C66.2317 90.89 66.7897 91.1 67.4737 91.1C68.3137 91.1 68.9677 90.83 69.4357 90.29C69.9037 89.738 70.1377 88.946 70.1377 87.914V83.288ZM77.4451 92.216C76.6051 92.216 75.8611 92.024 75.2131 91.64C74.5771 91.256 74.0791 90.722 73.7191 90.038C73.3591 89.354 73.1791 88.556 73.1791 87.644C73.1791 86.744 73.3531 85.952 73.7011 85.268C74.0611 84.572 74.5531 84.032 75.1771 83.648C75.8011 83.252 76.5271 83.054 77.3551 83.054C78.1471 83.054 78.8371 83.228 79.4251 83.576C80.0251 83.924 80.4871 84.41 80.8111 85.034C81.1471 85.646 81.3151 86.366 81.3151 87.194V87.806H73.8631L73.8991 86.906H80.0731C80.0731 86.066 79.8211 85.394 79.3171 84.89C78.8251 84.374 78.1711 84.116 77.3551 84.116C76.7551 84.116 76.2271 84.254 75.7711 84.53C75.3271 84.806 74.9851 85.202 74.7451 85.718C74.5051 86.222 74.3851 86.822 74.3851 87.518C74.3851 88.67 74.6491 89.564 75.1771 90.2C75.7171 90.836 76.4791 91.154 77.4631 91.154C78.1711 91.154 78.7531 91.004 79.2091 90.704C79.6651 90.404 79.9711 89.966 80.1271 89.39H81.3151C81.0871 90.302 80.6431 91.004 79.9831 91.496C79.3231 91.976 78.4771 92.216 77.4451 92.216ZM82.5629 89.552H83.7509C83.7509 90.056 83.9309 90.458 84.2909 90.758C84.6509 91.046 85.1309 91.19 85.7309 91.19C86.4029 91.19 86.9249 91.058 87.2969 90.794C87.6809 90.518 87.8729 90.146 87.8729 89.678C87.8729 89.318 87.7709 89.03 87.5669 88.814C87.3629 88.598 87.0029 88.424 86.4869 88.292L84.9929 87.914C84.2369 87.722 83.6729 87.428 83.3009 87.032C82.9289 86.636 82.7429 86.144 82.7429 85.556C82.7429 85.052 82.8749 84.614 83.1389 84.242C83.4029 83.858 83.7689 83.564 84.2369 83.36C84.7169 83.156 85.2689 83.054 85.8929 83.054C86.5049 83.054 87.0389 83.162 87.4949 83.378C87.9509 83.594 88.3049 83.9 88.5569 84.296C88.8209 84.68 88.9589 85.142 88.9709 85.682H87.7649C87.7529 85.166 87.5789 84.77 87.2429 84.494C86.9069 84.218 86.4449 84.08 85.8569 84.08C85.2449 84.08 84.7709 84.206 84.4349 84.458C84.1109 84.71 83.9489 85.07 83.9489 85.538C83.9489 86.21 84.4229 86.666 85.3709 86.906L86.8649 87.284C87.6209 87.476 88.1729 87.758 88.5209 88.13C88.8809 88.502 89.0609 89 89.0609 89.624C89.0609 90.14 88.9229 90.596 88.6469 90.992C88.3709 91.388 87.9809 91.694 87.4769 91.91C86.9849 92.114 86.4089 92.216 85.7489 92.216C84.7769 92.216 84.0029 91.976 83.4269 91.496C82.8509 91.004 82.5629 90.356 82.5629 89.552ZM90.1336 83.288H94.8496V84.332H90.1336V83.288ZM93.1036 92H91.8796V80.534H93.1036V92Z" fill="white"/>
<defs>
<linearGradient id="paint0_linear_458_2" x1="1.15608e-06" y1="15.5167" x2="133" y2="137.433" gradientUnits="userSpaceOnUse">
<stop stop-color="#FF5800"/>
<stop offset="0.207923" stop-color="#F62A4B"/>
<stop offset="0.370809" stop-color="#D42374"/>
<stop offset="0.630174" stop-color="#A0378B"/>
<stop offset="0.864583" stop-color="#64428E"/>
<stop offset="1" stop-color="#2B417A"/>
</linearGradient>
</defs>
</svg>
