<svg width="65" height="20" viewBox="0 0 65 20" fill="none" xmlns="http://www.w3.org/2000/svg">
<path d="M21 6.91504L26.8085 6.91504C30.0165 6.91504 32.617 9.5156 32.617 12.7235C32.617 15.9315 30.0165 18.5321 26.8085 18.5321C23.6006 18.5321 21 15.9315 21 12.7235V6.91504Z" stroke="#121212" stroke-width="2"/>
<path d="M37 6.91504L42.8085 6.91504C46.0165 6.91504 48.617 9.5156 48.617 12.7235C48.617 15.9315 46.0165 18.5321 42.8085 18.5321C39.6006 18.5321 37 15.9315 37 12.7235V6.91504Z" stroke="#121212" stroke-width="2"/>
<path d="M64 18.532L58.1915 18.532C54.9835 18.532 52.383 15.9314 52.383 12.7235C52.383 9.51552 54.9835 6.91496 58.1915 6.91496C61.3994 6.91496 64 9.51552 64 12.7235L64 18.532Z" stroke="#121212" stroke-width="2"/>
<path d="M17.0234 18.532L11.2149 18.532C8.00697 18.532 5.40642 15.9314 5.40642 12.7235C5.40642 9.51552 8.00698 6.91496 11.2149 6.91496C14.4229 6.91496 17.0234 9.51552 17.0234 12.7235L17.0234 18.532Z" stroke="#121212" stroke-width="2"/>
<rect width="2" height="20" fill="#212121"/>
<rect x="20" width="2" height="11" fill="#212121"/>
<rect x="36" width="2" height="11" fill="#212121"/>
</svg>
