<svg width="1473" height="371" viewBox="0 0 1473 371" fill="none" xmlns="http://www.w3.org/2000/svg">
<path d="M106.883 365L0.382813 6.99999H37.8828L110.383 253C113.049 261.667 115.383 270.667 117.383 280C119.716 289.333 122.049 300 124.383 312C127.383 299 130.216 288.167 132.883 279.5C135.549 270.5 138.216 261.667 140.883 253L218.883 6.99999H256.383L334.383 253C337.049 262 339.716 271.333 342.383 281C345.049 290.333 347.716 300.667 350.383 312C353.05 298.333 355.549 286.833 357.883 277.5C360.216 268.167 362.383 260.167 364.383 253.5L438.383 6.99999H474.883L367.383 365H333.383L237.383 61L141.383 365H106.883ZM833.41 186C833.41 222.333 826.077 254.333 811.41 282C797.077 309.667 777.077 331.5 751.41 347.5C725.744 363.167 696.243 371 662.91 371C629.577 371 599.91 363.167 573.91 347.5C548.243 331.5 528.243 309.667 513.91 282C499.577 254.333 492.41 222.333 492.41 186C492.41 149.667 499.577 117.667 513.91 90C528.577 62 548.743 40.1667 574.41 24.5C600.077 8.49998 629.577 0.499984 662.91 0.499984C696.577 0.499984 726.077 8.49998 751.41 24.5C777.077 40.1667 797.077 62 811.41 90C826.077 117.667 833.41 149.667 833.41 186ZM796.41 186C796.41 156 790.744 129.833 779.41 107.5C768.077 84.8333 752.41 67.1667 732.41 54.5C712.743 41.8333 689.577 35.5 662.91 35.5C636.577 35.5 613.41 41.8333 593.41 54.5C573.41 67.1667 557.743 84.8333 546.41 107.5C535.41 129.833 529.91 156 529.91 186C529.91 215.667 535.41 241.833 546.41 264.5C557.743 287.167 573.41 304.833 593.41 317.5C613.41 330.167 636.577 336.5 662.91 336.5C689.577 336.5 712.743 330.167 732.41 317.5C752.41 304.833 768.077 287.167 779.41 264.5C790.744 241.833 796.41 215.667 796.41 186ZM934.688 365H898.688V6.99999H1032.19C1068.19 6.99999 1096.52 16.3333 1117.19 35C1138.19 53.3333 1148.69 78.5 1148.69 110.5C1148.69 136.167 1142.19 157.667 1129.19 175C1116.52 192.333 1098.69 204.167 1075.69 210.5L1152.19 365H1112.19L1039.19 216.5H934.688V365ZM934.688 39.5V184H1033.19C1057.85 184 1077.02 177.5 1090.69 164.5C1104.69 151.5 1111.69 133.833 1111.69 111.5C1111.69 88.1667 1104.52 70.3333 1090.19 58C1075.85 45.6667 1056.52 39.5 1032.19 39.5H934.688ZM1470.01 6.99999L1248.51 283.5V230L1427.01 6.99999H1470.01ZM1254.51 6.99999V365H1218.51V6.99999H1254.51ZM1322.51 184.5L1346.51 155L1472.01 365H1430.01L1322.51 184.5Z" fill="#313131"/>
</svg>
